<svg xmlns="http://www.w3.org/2000/svg" width="44" height="44" viewBox="0 0 44 44">
    <defs>
        <linearGradient id="a" x1="0%" y1="79.611%" y2="18.856%">
            <stop offset="0%"/>
            <stop offset="100%" stop-color="#29323C"/>
        </linearGradient>
    </defs>
    <g fill="none" fill-rule="evenodd" transform="translate(.556 .667)">
        <circle cx="21.333" cy="21.333" r="20.833" fill="#FFF" stroke="#DADADA"/>
        <path fill="url(#a)" d="M6.333 15.5a1.83 1.83 0 0 0-1.824 1.833 1.83 1.83 0 0 0 1.824 1.834 1.839 1.839 0 0 0 1.834-1.834A1.839 1.839 0 0 0 6.333 15.5zM.833.833v1.834h1.834l3.3 6.957-1.238 2.246c-.147.257-.229.56-.229.88 0 1.008.825 1.833 1.833 1.833h11V12.75H6.718c-.128 0-.229-.1-.229-.23l.028-.11.825-1.493h6.829c.687 0 1.292-.376 1.604-.944l3.282-5.95a.92.92 0 0 0-.807-1.357H4.692L3.831.834H.833zM15.5 15.5a1.83 1.83 0 0 0-1.824 1.833 1.83 1.83 0 0 0 1.824 1.834 1.839 1.839 0 0 0 1.833-1.834A1.839 1.839 0 0 0 15.5 15.5z" transform="translate(11 11)"/>
    </g>
</svg>
