<svg xmlns="http://www.w3.org/2000/svg" version="1.1" xmlns:xlink="http://www.w3.org/1999/xlink" xmlns:svgjs="http://svgjs.dev/svgjs" width="1000" height="1000" viewBox="0 0 1000 1000"><rect width="1000" height="1000" fill="#003366"></rect><g transform="matrix(0.7,0,0,0.7,149.5757733901092,408.41960259741705)"><svg viewBox="0 0 396 104" data-background-color="#003366" preserveAspectRatio="xMidYMid meet" height="262" width="1000" xmlns="http://www.w3.org/2000/svg" xmlns:xlink="http://www.w3.org/1999/xlink"><g id="tight-bounds" transform="matrix(1,0,0,1,0.2399911694868706,-0.06782199164373992)"><svg viewBox="0 0 395.52 104.13564185926151" height="104.13564185926151" width="395.52"><g><svg viewBox="0 0 618.3670543282705 162.80858137918509" height="104.13564185926151" width="395.52"><g><rect width="5.919035933635503" height="118.39553132133211" x="411.0148584650144" y="22.206525028926485" fill="#ffffff" opacity="1" stroke-width="0" stroke="transparent" fill-opacity="1" class="rect-o-0" data-fill-palette-color="primary" rx="1%" id="o-0" data-palette-color="#ffffff"></rect></g><g transform="matrix(1,0,0,1,0,22.501041275994467)"><svg viewBox="0 0 395.52 117.80649882719615" height="117.80649882719615" width="395.52"><g><svg viewBox="0 0 395.52 117.80649882719615" height="117.80649882719615" width="395.52"><g><svg viewBox="0 0 395.52 65.63504322766569" height="65.63504322766569" width="395.52"><g transform="matrix(1,0,0,1,0,0)"><svg width="395.52" viewBox="3.6500000953674316 -34.150001525878906 208.1800079345703 34.55000305175781" height="65.63504322766569" data-palette-color="#ffffff"><g class="undefined-text-0" data-fill-palette-color="primary" id="text-0"><path d="M21.05-18.35L21.05-14.05 8.8-14.05 8.8 0 3.65 0 3.65-33.7 22.75-33.7 22.75-29.4 8.8-29.4 8.8-18.35 21.05-18.35ZM47.3-4.55L47.3 0 28.35 0 28.35-33.7 33.5-33.7 33.5-4.55 47.3-4.55ZM57.85-33.7L57.85 0 52.75 0 52.75-33.7 57.85-33.7ZM75.49-11.95L75.49-11.95 70.69-11.95 70.69 0 65.54 0 65.54-33.7 75.19-33.7Q80.99-33.7 84.39-30.63 87.79-27.55 87.79-22.75 87.79-17.95 84.37-14.95 80.94-11.95 75.49-11.95ZM74.99-29.45L74.99-29.45 70.69-29.45 70.69-16.2 75.09-16.2Q78.74-16.2 80.67-18 82.59-19.8 82.59-22.75L82.59-22.75Q82.59-25.85 80.64-27.65 78.69-29.45 74.99-29.45ZM102.99-11.95L102.99-11.95 98.19-11.95 98.19 0 93.04 0 93.04-33.7 102.69-33.7Q108.49-33.7 111.89-30.63 115.29-27.55 115.29-22.75 115.29-17.95 111.87-14.95 108.44-11.95 102.99-11.95ZM102.49-29.45L102.49-29.45 98.19-29.45 98.19-16.2 102.59-16.2Q106.24-16.2 108.17-18 110.09-19.8 110.09-22.75L110.09-22.75Q110.09-25.85 108.14-27.65 106.19-29.45 102.49-29.45ZM126.04-33.7L126.04 0 120.94 0 120.94-33.7 126.04-33.7ZM143.28-29.4L143.28-29.4 138.89-29.4 138.89-17.1 143.53-17.1Q146.74-17.1 148.39-18.78 150.04-20.45 150.04-23.25L150.04-23.25Q150.04-29.4 143.28-29.4ZM138.89-12.8L138.89 0 133.74 0 133.74-33.7 143.14-33.7Q148.94-33.7 152.09-30.88 155.24-28.05 155.24-23.2L155.24-23.2Q155.19-19.65 153.44-17.18 151.69-14.7 148.59-13.6L148.59-13.6 157.39 0 151.24 0 143.34-12.8 138.89-12.8ZM186.53-6.85L186.53-1.65Q183.43 0.4 177.93 0.4L177.93 0.4Q170.38 0.4 165.58-4.3 160.78-9 160.78-16.9L160.78-16.9Q160.78-24.55 165.61-29.35 170.43-34.15 177.83-34.15L177.83-34.15Q183.23-34.15 186.48-32.3L186.48-32.3 186.48-27.25Q184.28-28.45 182.51-28.93 180.73-29.4 177.98-29.4L177.98-29.4Q172.93-29.4 169.56-25.98 166.18-22.55 166.18-16.9L166.18-16.9Q166.18-11.15 169.53-7.75 172.88-4.35 178.38-4.35L178.38-4.35Q183.23-4.35 186.53-6.85L186.53-6.85ZM211.83-4.3L211.83 0 192.38 0 192.38-33.7 211.58-33.7 211.58-29.4 197.53-29.4 197.53-19 209.98-19 209.98-14.7 197.53-14.7 197.53-4.3 211.83-4.3Z" fill="#ffffff" data-fill-palette-color="primary"></path></g></svg></g></svg></g><g transform="matrix(1,0,0,1,163.31020800000002,81.1299016926801)"><svg viewBox="0 0 232.20979199999996 36.67659713451605" height="36.67659713451605" width="232.20979199999996"><g transform="matrix(1,0,0,1,0,0)"><svg width="232.20979199999996" viewBox="1.8300000429153442 -39.060001373291016 326.1200256347656 51.51000213623047" height="36.67659713451605" data-palette-color="#ff9966"><path d="M10.99 0.49L10.99 0.49Q9.38 0.49 8.13-0.29L8.13-0.29Q6.88 0.49 5.82 0.49 4.76 0.49 4.08 0.31 3.39 0.12 2.88-0.2L2.88-0.2Q1.83-0.83 1.83-1.78L1.83-1.78Q1.83-2.27 2.1-2.64L2.1-2.64Q2.64-2.22 3.47-2.22L3.47-2.22Q5.64-2.22 6.47-4.08L6.47-4.08 6.47-16.02Q6.47-17.14 6.01-17.68L6.01-17.68Q5.27-18.58 3.49-19.46L3.49-19.46Q5.15-20.21 5.64-20.8L5.64-20.8Q6.47-21.75 6.47-22.95L6.47-22.95 6.47-33.25Q5.64-35.13 3.47-35.13L3.47-35.13Q2.64-35.13 2.1-34.72L2.1-34.72Q1.83-35.08 1.83-35.56 1.83-36.04 2.11-36.45 2.39-36.87 2.88-37.16L2.88-37.16Q4-37.84 5.46-37.84 6.91-37.84 8.13-37.04L8.13-37.04Q9.4-37.84 11.04-37.84 12.67-37.84 14.01-36.89L14.01-36.89Q16.6-37.84 20-37.84L20-37.84Q22.51-37.84 24.29-37.35L24.29-37.35 26.46-36.77Q26.86-36.67 27.22-36.67L27.22-36.67Q27.91-36.67 27.91-37.65L27.91-37.65Q27.91-37.89 27.73-38.48L27.73-38.48Q28.42-38.6 29.47-38.6 30.52-38.6 31.25-37.9 31.98-37.21 31.98-35.9 31.98-34.59 31.52-33.98L31.52-33.98Q32.18-33.01 32.18-31.6 32.18-30.2 31.23-29.25L31.23-29.25Q31.52-28.52 31.52-27.82 31.52-27.12 31.29-26.55 31.05-25.98 30.71-25.59L30.71-25.59Q30.03-24.88 29.32-24.88L29.32-24.88Q28.3-24.88 27.47-25.32L27.47-25.32Q27.76-25.9 27.76-27.05L27.76-27.05Q27.76-29.74 26.42-31.76L26.42-31.76Q24.58-34.55 20.92-34.55L20.92-34.55Q19.07-34.55 17.57-33.64 16.06-32.74 15.45-31.05L15.45-31.05 15.45-21.61Q16.31-21.07 17.05-21.07 17.8-21.07 18.18-21.09 18.55-21.12 18.95-21.19L18.95-21.19Q19.95-21.34 20.48-21.58L20.48-21.58Q21.51-22.07 21.51-23.97L21.51-23.97Q21.51-25.05 21-25.63L21-25.63Q21.48-25.98 22.22-25.98L22.22-25.98Q23.85-25.98 24.58-24.66L24.58-24.66Q24.85-24.19 24.85-23.63 24.85-23.07 24.56-22.24L24.56-22.24Q25.56-21.09 25.56-19.52 25.56-17.94 24.56-16.8L24.56-16.8Q24.85-15.97 24.85-15.3 24.85-14.62 24.58-14.01 24.32-13.4 23.93-13.04L23.93-13.04Q23.17-12.35 22.22-12.35L22.22-12.35Q21.53-12.35 21-12.74L21-12.74Q21.51-13.6 21.51-14.75L21.51-14.75Q21.51-17.02 20.26-17.55L20.26-17.55Q19.17-17.99 17.75-17.99 16.33-17.99 15.45-17.48L15.45-17.48 15.45-5.27Q16.87-2.78 20.92-2.78L20.92-2.78Q25.51-2.78 27.17-5.62L27.17-5.62Q29.1-8.86 29.1-12.57L29.1-12.57Q29.1-13.65 28.91-14.23L28.91-14.23Q29.52-14.84 30.18-14.84 30.83-14.84 31.18-14.66 31.52-14.48 31.79-14.21L31.79-14.21Q32.37-13.55 32.37-12.87L32.37-12.87 32.23-11.67Q32.23-11.21 32.47-10.91L32.47-10.91Q32.96-10.4 32.96-9.95 32.96-9.5 32.67-8.86L32.67-8.86Q33.23-8.54 33.68-7.92 34.13-7.3 34.13-6.64L34.13-6.64Q34.13-5.25 32.96-4.15L32.96-4.15Q33.47-3.42 33.47-2.04 33.47-0.66 32.68 0.31 31.88 1.27 30.62 1.27L30.62 1.27Q29.93 1.27 29.2 1.12L29.2 1.12Q29.3 0.59 29.3 0.05L29.3 0.05Q29.3-1.07 28.27-1.07L28.27-1.07Q27.12-1.07 25.98-0.61L25.98-0.61Q23.27 0.49 19.81 0.49 16.36 0.49 13.94-0.42L13.94-0.42Q12.67 0.49 10.99 0.49ZM8.81-9.64L8.81-6.47Q10.03-6.93 10.16-9.67L10.16-9.67Q10.3-12.4 10.3-17.24 10.3-22.07 10.29-23.67 10.28-25.27 10.25-26.25L10.25-26.25Q10.18-29.13 9.7-29.72 9.23-30.32 8.81-30.52L8.81-30.52Q8.81-22.02 8.52-20.85L8.52-20.85Q8.18-19.87 6.86-19.46L6.86-19.46Q8.33-18.95 8.52-18.21L8.52-18.21Q8.81-17.04 8.81-9.64L8.81-9.64ZM14.99-6.59L14.97-6.71Q14.97-6.64 14.99-6.59L14.99-6.59ZM54.42-2.32L54.42-2.32Q52.19 0.61 47.75 0.61L47.75 0.61Q42.33 0.61 39.62-2.64L39.62-2.64Q38.45-4.03 38.01-5.74L38.01-5.74Q37.77-6.76 37.16-7.31 36.55-7.86 35.64-8.3L35.64-8.3Q37.4-9.11 38.16-11.33L38.16-11.33Q38.96-13.67 40.84-14.72L40.84-14.72Q42.87-15.82 45.31-15.88 47.75-15.94 48.92-16.04 50.1-16.14 51-16.36L51-16.36Q52.68-16.75 53.64-17.8L53.64-17.8 53.64-21.46Q53.64-23.88 52.65-25 51.66-26.12 49.64-26.12 47.63-26.12 46.66-25.38 45.7-24.63 45.7-23.39L45.7-23.39Q45.7-21.48 47.65-21.53L47.65-21.53Q47.26-19.63 45.6-19.63L45.6-19.63Q45.11-19.63 44.65-19.8L44.65-19.8 44.65-19.73Q44.65-19.09 45.24-18.92L45.24-18.92Q44.63-17.99 43.19-18.02 41.75-18.04 40.94-19.56L40.94-19.56Q40.57-19.46 40.1-19.46 39.62-19.46 39.05-19.78 38.47-20.09 38.13-20.65L38.13-20.65Q39.35-21.39 39.62-22.92L39.62-22.92Q39.91-24.8 42.62-26.73L42.62-26.73Q45.9-29.05 50.97-29.05L50.97-29.05Q59.4-29.05 61.25-23.88L61.25-23.88Q61.86-22.14 61.86-19.78L61.86-19.78 61.86-17.8Q61.86-16.6 62.46-15.84 63.06-15.09 64.5-14.6L64.5-14.6Q62.96-13.89 62.52-13.33L62.52-13.33Q61.86-12.48 61.86-11.38L61.86-11.38 61.86-4.05Q62.57-2.22 63.89-2.22L63.89-2.22Q64.72-2.22 65.26-2.64L65.26-2.64Q65.6-2.17 65.6-1.48 65.6-0.78 64.9-0.15 64.21 0.49 62.81 0.49 61.42 0.49 60.23-0.29L60.23-0.29Q59.18 0.49 58.36 0.49 57.54 0.49 56.94 0.33 56.35 0.17 55.83-0.17L55.83-0.17Q54.69-0.93 54.42-2.32ZM55.95-22.73L55.95-6.47Q57.37-7.03 57.44-11.87L57.44-11.87Q57.44-12.89 57.44-14.21 57.44-15.53 57.43-16.47 57.42-17.41 57.39-18.26L57.39-18.26Q57.3-21.34 56.83-21.94 56.37-22.53 55.95-22.73L55.95-22.73ZM46.95-8.2L46.95-8.2Q46.95-7.18 47.17-6.2 47.39-5.22 47.82-4.49L47.82-4.49Q48.8-2.95 50.58-2.95L50.58-2.95Q51.93-2.95 52.81-4.05L52.81-4.05Q53.64-5.13 53.64-6.81L53.64-6.81 53.64-14.77Q52.07-13.87 49.63-13.53L49.63-13.53Q46.95-13.11 46.95-8.2ZM43.28-2.71L43.28-2.71Q43.53-2.88 43.53-3.15L43.53-3.15Q43.53-3.52 43.19-4.17L43.19-4.17Q41.97-6.42 41.97-7.86 41.97-9.3 42.08-9.94 42.19-10.57 42.37-11.02 42.55-11.47 42.78-11.82 43.02-12.16 43.19-12.43L43.19-12.43Q43.5-12.99 43.5-13.2 43.5-13.4 43.28-13.55L43.28-13.55Q42.28-13.09 41.82-12.45L41.82-12.45Q40.99-11.33 40.6-9.55L40.6-9.55Q40.5-9.03 38.89-8.3L38.89-8.3Q40.45-7.59 40.6-7.06L40.6-7.06Q41.43-4.15 43.28-2.71ZM73.58-0.59L73.58-0.59Q71.92 1 70.38 1L70.38 1Q69.53 1 69.21 0.37L69.21 0.37Q69.77-0.2 69.77-0.76 69.77-1.32 69.6-1.61L69.6-1.61 69.28-2.17 69.67-1.44Q69.09-1.71 68.77-2.34 68.45-2.98 68.45-3.89 68.45-4.81 69.48-5.98L69.48-5.98Q68.99-6.67 68.99-7.5 68.99-8.33 69.27-8.87 69.55-9.42 69.99-9.86L69.99-9.86Q70.97-10.79 72.07-10.79L72.07-10.79Q72.8-10.79 73.12-10.28L73.12-10.28Q72.46-9.57 72.46-8.04 72.46-6.52 72.98-5.44 73.51-4.37 74.41-3.61L74.41-3.61Q76.31-2 79.1-2L79.1-2Q82.2-2 83.39-4.27L83.39-4.27Q83.74-4.96 83.74-5.65 83.74-6.35 83.42-6.9 83.1-7.45 82.59-7.96L82.59-7.96Q81.73-8.79 79.98-9.86L79.98-9.86Q78.29-11.06 76-11.06L76-11.06Q74.51-11.06 73.99-10.82L73.99-10.82Q74.31-11.55 74.31-12.28 74.31-13.01 73.33-13.88 72.36-14.75 71.59-15.63 70.82-16.5 70.36-17.38L70.36-17.38Q69.43-19.04 69.43-20.9 69.43-22.75 70.2-24.18 70.97-25.61 72.36-26.64L72.36-26.64Q75.26-28.81 79.8-28.81L79.8-28.81Q82-28.81 82.82-28.61 83.64-28.42 84.13-28.25L84.13-28.25Q84.79-28 85.74-28 86.69-28 87.07-28.42 87.45-28.83 87.45-29.19 87.45-29.54 87.37-29.74L87.37-29.74Q87.52-29.79 87.81-29.79 88.11-29.79 88.48-29.61 88.86-29.44 89.16-29.15L89.16-29.15Q89.74-28.49 89.74-27.75 89.74-27 89.45-26.61L89.45-26.61Q90.13-25.98 90.13-24.8 90.13-23.63 89.16-22.83L89.16-22.83Q89.37-22.39 89.37-21.75 89.37-21.12 88.69-20.53 88.01-19.95 87.4-19.95L87.4-19.95Q86.35-19.95 85.98-20.21L85.98-20.21Q86.3-21 86.3-21.91 86.3-22.83 85.81-23.66 85.32-24.49 84.57-25L84.57-25Q83.15-25.98 81.2-25.98L81.2-25.98Q78.73-25.98 77.88-24.41L77.88-24.41Q77.61-23.93 77.61-23.35 77.61-22.78 77.77-22.3 77.92-21.83 78.29-21.34L78.29-21.34Q79-20.39 80.29-19.53L80.29-19.53Q81.98-18.43 82.64-18.43L82.64-18.43Q84.05-18.43 85.1-19.12L85.1-19.12Q84.81-17.94 84.81-17.48L84.81-17.48Q84.81-16.77 85.93-15.84L85.93-15.84Q89.08-13.67 90.23-11.87L90.23-11.87Q91.33-10.11 91.33-7.96 91.33-5.81 90.38-4.28 89.42-2.76 87.79-1.66L87.79-1.66Q84.39 0.61 79.56 0.61L79.56 0.61Q76.26 0.61 73.58-0.59ZM72.72-22.95L72.72-22.95Q72.02-22.61 72.02-21.06 72.02-19.51 73.02-18.1 74.02-16.7 76.19-14.94L76.19-14.94Q76.7-14.55 76.7-14.18L76.7-14.18Q76.7-13.62 76.61-13.28L76.61-13.28Q76.9-13.35 77.63-13.43L77.63-13.43Q79.41-13.6 82.05-11.77L82.05-11.77Q86.25-9.18 86.25-6.32L86.25-6.32Q86.25-5.25 85.96-4.71L85.96-4.71Q86.84-4.88 87.3-6.2L87.3-6.2Q87.42-6.59 87.42-7.01L87.42-7.01Q87.42-8.98 85.29-11.02 83.15-13.06 79.15-14.97L79.15-14.97Q72.5-18.33 72.72-22.95ZM123.16-25.17L123.16-25.17Q122.62-25.51 121.45-25.51L121.45-25.51Q119.11-25.51 117.91-22.34L117.91-22.34 117.16-20.21Q116.33-17.9 116.31-17.04 116.3-16.19 116.61-15.66 116.91-15.14 117.99-14.58L117.99-14.58Q115.35-13.84 114.4-12.11L114.4-12.11Q114.1-11.57 113.88-10.99L113.88-10.99 109.83 0.02Q107.46 6.84 105.44 9.25L105.44 9.25Q103.58 11.47 100.8 11.47L100.8 11.47Q98.67 11.47 96.79 10.11L96.79 10.11Q94.65 8.57 94.65 6.49L94.65 6.49Q94.65 5.2 95.33 4.53 96.01 3.86 96.59 3.86 97.16 3.86 97.38 3.87 97.6 3.88 97.82 3.96L97.82 3.96Q98.26 4.15 98.65 4.83L98.65 4.83Q98.14 5.81 99.31 6.98L99.31 6.98Q100.41 8.13 101.37 8.13 102.34 8.13 102.98 7.76 103.63 7.4 104.14 6.64L104.14 6.64Q105.27 4.98 105.27 1.88L105.27 1.88Q105.27 0.2 104.36-1.83L104.36-1.83Q104.12-2.51 103.78-3.27L103.78-3.27 100.31-11.08Q99.75-12.33 98.61-13.29 97.48-14.26 96.06-14.58L96.06-14.58Q97.75-15.43 97.75-16.82L97.75-16.82Q97.75-17.82 96.94-19.78L96.94-19.78 95.5-23.24Q94.87-24.66 94.45-25.02L94.45-25.02Q93.72-25.61 92.75-25.61 91.79-25.61 91.25-25.2L91.25-25.2Q90.96-25.49 90.95-26.05 90.93-26.61 91.08-26.99 91.23-27.37 91.57-27.66L91.57-27.66Q92.3-28.32 93.68-28.32 95.06-28.32 96.28-27.44L96.28-27.44Q97.28-28.32 98.72-28.32 100.16-28.32 101.26-27.51L101.26-27.51Q102.36-28.32 103.73-28.32 105.1-28.32 105.89-27.67 106.68-27.03 106.71-26.39L106.71-26.39Q106.73-25.44 106.39-25.1L106.39-25.1Q105.8-25.54 105.17-25.54 104.53-25.54 104.13-25.17 103.73-24.8 103.78-23.97L103.78-23.97 109.42-8.74 114.76-24.39Q114.49-25.63 112.98-25.63L112.98-25.63Q112.03-25.63 111.17-25.17L111.17-25.17Q110.93-25.63 110.94-26.37 110.95-27.1 111.63-27.71 112.3-28.32 113.46-28.32 114.62-28.32 115.45-27.54L115.45-27.54Q116.33-28.32 117.42-28.32 118.52-28.32 119.43-27.64L119.43-27.64Q120.26-28.32 121.27-28.32 122.28-28.32 122.88-27.73 123.48-27.15 123.45-26.51L123.45-26.51Q123.41-25.54 123.16-25.17ZM104.14-12.08L99.65-22.73Q99.09-22.36 99.1-21.8 99.11-21.24 99.15-20.94 99.19-20.63 99.28-20.21L99.28-20.21Q99.5-19.43 100.18-17.91 100.85-16.38 100.88-16 100.92-15.63 100.63-15.17 100.33-14.72 99.92-14.58L99.92-14.58Q101.48-14.28 101.85-13.48L101.85-13.48Q102.02-13.13 102.34-12.4L102.34-12.4 104-8.69Q104.48-7.57 105.02-6.47L105.02-6.47Q106.02-7.69 104.14-12.08L104.14-12.08ZM151.99-3.58Q152.45-4.05 152.72-4.8 152.99-5.54 152.99-6.36 152.99-7.18 152.89-7.86L152.89-7.86Q153.06-8.23 153.82-8.44 154.58-8.64 154.82-8.64L154.82-8.64Q155.75-8.64 156.31-7.95 156.87-7.25 156.87-6.02 156.87-4.79 156.15-3.59 155.43-2.39 154.24-1.46L154.24-1.46Q151.57 0.61 148.03 0.61L148.03 0.61Q141.3 0.61 139.1-4.49L139.1-4.49Q138.29-6.37 138.29-9.2L138.29-9.2 138.29-12.18Q138.29-13.33 135.78-14.6L135.78-14.6Q138.29-16.04 138.29-18.48L138.29-18.48 138.29-21.36Q138.29-24.15 136.02-24.15L136.02-24.15Q135.19-24.15 134.66-23.73L134.66-23.73Q134.31-24.19 134.31-24.69 134.31-25.2 134.5-25.79 134.68-26.39 135.14-26.88L135.14-26.88Q136.32-28.15 138.78-27.76L138.78-27.76 138.78-28.54Q138.78-31.1 140.08-33.06L140.08-33.06Q141.22-34.81 142.11-34.81 143.01-34.81 143.49-34.2L143.49-34.2Q143.91-36.13 144.59-36.99 145.28-37.84 146.55-37.84L146.55-37.84 146.55-27.66 154.48-27.66Q154.68-27.27 154.68-26.35 154.68-25.44 153.97-24.89 153.26-24.34 152.26-24.34L152.26-24.34 146.55-24.34 146.55-7.81Q146.55-3.56 148.47-2.83L148.47-2.83Q149.04-2.64 149.68-2.64 150.33-2.64 150.93-2.87 151.53-3.1 151.99-3.58ZM140.64-8.06L140.64-6.47Q141.78-7.2 141.93-9.52L141.93-9.52Q142.03-11.18 142.04-12.11 142.05-13.04 142.07-13.61 142.08-14.18 142.08-14.5L142.08-14.5 142.08-15.48Q142.08-16.19 142.07-17.3 142.05-18.41 142.04-19.71 142.03-21.02 141.98-22.22L141.98-22.22Q141.91-25.1 141.76-25.73L141.76-25.73Q141.47-27.15 140.64-27.69L140.64-27.69 140.64-20.07Q140.64-16.67 140.53-16.48 140.42-16.28 140.34-16.02L140.34-16.02Q140.12-15.28 138.68-14.79L138.68-14.79Q140.15-14.28 140.34-13.55L140.34-13.55Q140.64-12.38 140.64-8.06L140.64-8.06ZM163.68-2.73Q162.14-4.3 161.25-6.45 160.36-8.59 160.17-10.13 159.97-11.67 159.84-12.11 159.7-12.55 159.38-12.94L159.38-12.94Q158.75-13.75 157.07-14.58L157.07-14.58Q159.19-15.53 159.78-17.63L159.78-17.63Q159.95-18.21 160.04-18.8L160.04-18.8Q160.68-23.17 164.27-26.11 167.86-29.05 172.64-29.05L172.64-29.05Q177.62-29.05 181.21-26.07L181.21-26.07Q184.7-23.17 185.34-18.8L185.34-18.8Q185.56-17.26 186-16.55L186-16.55Q186.83-15.26 188.32-14.58L188.32-14.58Q186.65-13.77 186.17-13.16L186.17-13.16Q185.51-12.3 185.34-11.13L185.34-11.13Q184.56-5.37 181.33-2.38 178.11 0.61 172.74 0.61L172.74 0.61Q166.98 0.61 163.68-2.73L163.68-2.73ZM176.84-19.51Q176.84-25.61 172.69-25.61 168.54-25.61 168.54-19.51L168.54-19.51 168.54-8.69Q168.54-2.83 172.67-2.83L172.67-2.83Q176.84-2.83 176.84-8.69L176.84-8.69 176.84-19.51ZM179.18-22.73L179.18-6.47Q180.4-6.93 180.53-9.67L180.53-9.67Q180.67-12.4 180.67-13.73 180.67-15.06 180.66-15.95 180.65-16.85 180.62-17.8L180.62-17.8Q180.53-21.36 180.06-21.95 179.6-22.53 179.18-22.73L179.18-22.73ZM164.56-6.47L164.56-6.47Q164.9-6.74 164.9-7.08L164.9-7.08Q164.9-7.62 164.68-8.45L164.68-8.45Q163.68-12.28 163.68-13.78 163.68-15.28 163.78-16.13 163.88-16.97 164.02-17.82L164.02-17.82Q164.34-19.48 164.68-20.75L164.68-20.75Q164.9-21.58 164.9-21.88L164.9-21.88Q164.9-22.46 164.56-22.73L164.56-22.73Q163.53-21.51 163-19.46 162.46-17.41 162.12-15.84L162.12-15.84Q162-15.19 160.68-14.58L160.68-14.58Q162-13.96 162.12-13.35L162.12-13.35Q163.02-9.23 163.61-8.11 164.19-6.98 164.56-6.47ZM208.82-0.59L208.82-0.59Q207.16 1 205.62 1L205.62 1Q204.77 1 204.45 0.37L204.45 0.37Q205.01-0.2 205.01-0.76 205.01-1.32 204.84-1.61L204.84-1.61 204.52-2.17 204.91-1.44Q204.33-1.71 204.01-2.34 203.69-2.98 203.69-3.89 203.69-4.81 204.72-5.98L204.72-5.98Q204.23-6.67 204.23-7.5 204.23-8.33 204.51-8.87 204.79-9.42 205.23-9.86L205.23-9.86Q206.21-10.79 207.3-10.79L207.3-10.79Q208.04-10.79 208.35-10.28L208.35-10.28Q207.69-9.57 207.69-8.04 207.69-6.52 208.22-5.44 208.74-4.37 209.65-3.61L209.65-3.61Q211.55-2 214.34-2L214.34-2Q217.44-2 218.63-4.27L218.63-4.27Q218.97-4.96 218.97-5.65 218.97-6.35 218.66-6.9 218.34-7.45 217.83-7.96L217.83-7.96Q216.97-8.79 215.21-9.86L215.21-9.86Q213.53-11.06 211.23-11.06L211.23-11.06Q209.75-11.06 209.23-10.82L209.23-10.82Q209.55-11.55 209.55-12.28 209.55-13.01 208.57-13.88 207.6-14.75 206.83-15.63 206.06-16.5 205.6-17.38L205.6-17.38Q204.67-19.04 204.67-20.9 204.67-22.75 205.44-24.18 206.21-25.61 207.6-26.64L207.6-26.64Q210.5-28.81 215.04-28.81L215.04-28.81Q217.24-28.81 218.06-28.61 218.88-28.42 219.36-28.25L219.36-28.25Q220.02-28 220.98-28 221.93-28 222.31-28.42 222.69-28.83 222.69-29.19 222.69-29.54 222.61-29.74L222.61-29.74Q222.76-29.79 223.05-29.79 223.34-29.79 223.72-29.61 224.1-29.44 224.39-29.15L224.39-29.15Q224.98-28.49 224.98-27.75 224.98-27 224.69-26.61L224.69-26.61Q225.37-25.98 225.37-24.8 225.37-23.63 224.39-22.83L224.39-22.83Q224.61-22.39 224.61-21.75 224.61-21.12 223.93-20.53 223.25-19.95 222.64-19.95L222.64-19.95Q221.59-19.95 221.22-20.21L221.22-20.21Q221.54-21 221.54-21.91 221.54-22.83 221.05-23.66 220.56-24.49 219.8-25L219.8-25Q218.39-25.98 216.44-25.98L216.44-25.98Q213.97-25.98 213.11-24.41L213.11-24.41Q212.85-23.93 212.85-23.35 212.85-22.78 213-22.3 213.16-21.83 213.53-21.34L213.53-21.34Q214.24-20.39 215.53-19.53L215.53-19.53Q217.22-18.43 217.88-18.43L217.88-18.43Q219.29-18.43 220.34-19.12L220.34-19.12Q220.05-17.94 220.05-17.48L220.05-17.48Q220.05-16.77 221.17-15.84L221.17-15.84Q224.32-13.67 225.47-11.87L225.47-11.87Q226.57-10.11 226.57-7.96 226.57-5.81 225.61-4.28 224.66-2.76 223.03-1.66L223.03-1.66Q219.63 0.61 214.8 0.61L214.8 0.61Q211.5 0.61 208.82-0.59ZM207.96-22.95L207.96-22.95Q207.26-22.61 207.26-21.06 207.26-19.51 208.26-18.1 209.26-16.7 211.43-14.94L211.43-14.94Q211.94-14.55 211.94-14.18L211.94-14.18Q211.94-13.62 211.85-13.28L211.85-13.28Q212.14-13.35 212.87-13.43L212.87-13.43Q214.65-13.6 217.29-11.77L217.29-11.77Q221.49-9.18 221.49-6.32L221.49-6.32Q221.49-5.25 221.2-4.71L221.2-4.71Q222.07-4.88 222.54-6.2L222.54-6.2Q222.66-6.59 222.66-7.01L222.66-7.01Q222.66-8.98 220.52-11.02 218.39-13.06 214.38-14.97L214.38-14.97Q207.74-18.33 207.96-22.95ZM234.55-0.29L234.55-0.29Q233.42 0.49 232 0.49 230.57 0.49 229.87-0.15 229.18-0.78 229.18-1.37L229.18-1.37Q229.18-2.17 229.52-2.64L229.52-2.64Q230.06-2.22 230.89-2.22L230.89-2.22Q232.3-2.22 232.91-3.86L232.91-3.86 232.91-11.38Q232.91-12.6 232.45-13.04L232.45-13.04Q231.89-13.62 229.93-14.58L229.93-14.58Q231.64-15.36 232.11-15.82L232.11-15.82Q232.91-16.63 232.91-17.8L232.91-17.8 232.91-31.62Q232.91-34.4 230.64-34.4L230.64-34.4Q229.81-34.4 229.27-33.98L229.27-33.98Q228.93-34.45 228.93-34.95 228.93-35.45 229.19-35.91 229.45-36.38 229.96-36.77L229.96-36.77Q231.13-37.6 232.89-37.6 234.65-37.6 235.62-37.38L235.62-37.38Q236.96-39.06 238.65-39.06L238.65-39.06Q241.16-39.06 241.16-36.43L241.16-36.43 241.16-24.39Q243.53-28.81 248.9-28.81L248.9-28.81Q255.06-28.81 256.74-23.36L256.74-23.36Q257.28-21.63 257.28-19.43L257.28-19.43 257.28-17.8Q257.28-16.65 257.79-16.14L257.79-16.14Q258.55-15.38 260.26-14.6L260.26-14.6Q258.4-13.7 257.96-13.21L257.96-13.21Q257.28-12.45 257.28-11.38L257.28-11.38 257.28-3.74Q257.74-2.22 259.3-2.22L259.3-2.22Q260.13-2.22 260.67-2.64L260.67-2.64Q260.94-2.27 260.94-1.56 260.94-0.85 260.29-0.18 259.65 0.49 258.23 0.49 256.81 0.49 255.62-0.29L255.62-0.29Q254.52 0.49 253.14 0.49 251.76 0.49 250.73-0.24L250.73-0.24Q249.78 0.49 248.6 0.49 247.41 0.49 246.71-0.12 246-0.73 246-1.88L246-1.88Q246-2.42 246.36-2.73L246.36-2.73Q246.93-2.29 247.49-2.29L247.49-2.29Q248.56-2.29 249.03-3.49L249.03-3.49 249.03-18.04Q249.03-22.8 246.71-23.54L246.71-23.54Q245.97-23.78 245.12-23.78L245.12-23.78Q242.58-23.78 241.58-21.09L241.58-21.09Q241.26-20.26 241.16-19.29L241.16-19.29 241.16-3.49Q241.63-2.29 242.7-2.29L242.7-2.29Q243.26-2.29 243.83-2.73L243.83-2.73Q244.19-2.42 244.19-1.57 244.19-0.73 243.48-0.12 242.78 0.49 241.58 0.49 240.38 0.49 239.43-0.24L239.43-0.24Q238.43 0.49 237.06 0.49 235.7 0.49 234.55-0.29ZM235.21-8.08L235.21-6.49Q236.31-7.2 236.5-9.59L236.5-9.59Q236.57-10.64 236.6-11.94 236.62-13.23 236.64-13.78 236.65-14.33 236.65-14.6L236.65-14.6 236.65-16.8Q236.65-17.7 236.65-18.85L236.65-18.85 236.6-21.24Q236.55-27.71 236.38-28.44L236.38-28.44Q236.04-29.98 235.21-30.52L235.21-30.52 235.21-22.29Q235.21-17.24 235.1-16.66 234.99-16.09 234.91-15.82L234.91-15.82Q234.69-15.06 233.25-14.58L233.25-14.58Q234.72-14.06 234.91-13.35L234.91-13.35Q235.21-12.18 235.21-8.08L235.21-8.08ZM251.34-15.26L251.34-6.47Q252.57-6.93 252.71-9.67L252.71-9.67Q252.83-12.4 252.83-14.69 252.83-16.97 252.69-18.41 252.54-19.85 252.21-20.69 251.88-21.53 251.37-21.96 250.86-22.39 250.12-22.75L250.12-22.75Q251.05-20.56 251.2-18.75 251.34-16.94 251.34-15.26L251.34-15.26ZM269.29-2.73Q267.75-4.3 266.86-6.45 265.97-8.59 265.77-10.13 265.58-11.67 265.44-12.11 265.31-12.55 264.99-12.94L264.99-12.94Q264.35-13.75 262.67-14.58L262.67-14.58Q264.79-15.53 265.38-17.63L265.38-17.63Q265.55-18.21 265.65-18.8L265.65-18.8Q266.28-23.17 269.87-26.11 273.46-29.05 278.25-29.05L278.25-29.05Q283.23-29.05 286.82-26.07L286.82-26.07Q290.31-23.17 290.94-18.8L290.94-18.8Q291.16-17.26 291.6-16.55L291.6-16.55Q292.43-15.26 293.92-14.58L293.92-14.58Q292.26-13.77 291.77-13.16L291.77-13.16Q291.11-12.3 290.94-11.13L290.94-11.13Q290.16-5.37 286.94-2.38 283.72 0.61 278.34 0.61L278.34 0.61Q272.58 0.61 269.29-2.73L269.29-2.73ZM282.45-19.51Q282.45-25.61 278.3-25.61 274.14-25.61 274.14-19.51L274.14-19.51 274.14-8.69Q274.14-2.83 278.27-2.83L278.27-2.83Q282.45-2.83 282.45-8.69L282.45-8.69 282.45-19.51ZM284.79-22.73L284.79-6.47Q286.01-6.93 286.13-9.67L286.13-9.67Q286.28-12.4 286.28-13.73 286.28-15.06 286.27-15.95 286.25-16.85 286.23-17.8L286.23-17.8Q286.13-21.36 285.67-21.95 285.2-22.53 284.79-22.73L284.79-22.73ZM270.17-6.47L270.17-6.47Q270.51-6.74 270.51-7.08L270.51-7.08Q270.51-7.62 270.29-8.45L270.29-8.45Q269.29-12.28 269.29-13.78 269.29-15.28 269.38-16.13 269.48-16.97 269.63-17.82L269.63-17.82Q269.95-19.48 270.29-20.75L270.29-20.75Q270.51-21.58 270.51-21.88L270.51-21.88Q270.51-22.46 270.17-22.73L270.17-22.73Q269.14-21.51 268.6-19.46 268.07-17.41 267.72-15.84L267.72-15.84Q267.6-15.19 266.28-14.58L266.28-14.58Q267.6-13.96 267.72-13.35L267.72-13.35Q268.63-9.23 269.21-8.11 269.8-6.98 270.17-6.47ZM301.83 11.65L301.83 11.65Q300.73 12.45 299.29 12.45 297.85 12.45 297.15 11.82 296.46 11.18 296.46 10.6L296.46 10.6Q296.46 9.79 296.8 9.33L296.8 9.33Q297.34 9.74 298.17 9.74L298.17 9.74Q299.58 9.74 300.19 8.11L300.19 8.11 300.19-11.13Q300.19-12.26 299.73-12.79L299.73-12.79Q299-13.7 297.21-14.58L297.21-14.58Q300.19-15.94 300.19-18.8L300.19-18.8 300.19-21.36Q300.19-23.44 298.78-23.61L298.78-23.61Q298.36-23.66 297.73-23.66 297.09-23.66 296.55-23.24L296.55-23.24Q296.21-23.71 296.21-24.21 296.21-24.71 296.47-25.33 296.73-25.95 297.24-26.51L297.24-26.51Q298.53-27.83 300.23-27.83 301.93-27.83 303.05-27.29L303.05-27.29Q304.39-28.81 305.93-28.81L305.93-28.81Q308.44-28.81 308.44-26.17L308.44-26.17 308.44-26Q310.37-27.93 313.47-28.61L313.47-28.61Q314.43-28.81 315.93-28.81 317.43-28.81 319.09-28.37 320.75-27.93 321.97-26.81L321.97-26.81Q324.41-24.56 324.97-18.8L324.97-18.8Q325.22-15.82 327.95-14.58L327.95-14.58Q326.22-13.72 325.75-13.13L325.75-13.13Q325.14-12.3 324.97-11.13L324.97-11.13Q324.26-5.25 321.95-2.44L321.95-2.44Q319.41 0.61 314.6 0.61L314.6 0.61Q310.89 0.61 308.44-1.34L308.44-1.34 308.44 8.06Q309.05 9.74 310.47 9.74L310.47 9.74Q311.3 9.74 311.84 9.33L311.84 9.33Q312.18 9.79 312.18 10.49 312.18 11.18 311.48 11.82 310.79 12.45 309.37 12.45 307.96 12.45 306.81 11.65L306.81 11.65Q305.83 12.45 304.38 12.45 302.93 12.45 301.83 11.65ZM308.42-19.02L308.42-7.74Q308.42-5.76 309.74-4.35L309.74-4.35Q311.03-2.95 312.64-2.95L312.64-2.95Q316.72-2.95 316.72-8.81L316.72-8.81 316.72-19.51Q316.72-22.19 315.77-23.72 314.82-25.24 313.08-25.24L313.08-25.24Q309.98-25.24 308.81-21.83L308.81-21.83Q308.42-20.65 308.42-19.02L308.42-19.02ZM319.06-22.73L319.06-6.47Q320.29-6.93 320.43-9.67L320.43-9.67Q320.55-12.4 320.55-13.73 320.55-15.06 320.54-15.95 320.53-16.85 320.5-17.8L320.5-17.8Q320.41-21.36 319.94-21.95 319.48-22.53 319.06-22.73L319.06-22.73ZM302.49-7.35L302.49 0.63Q303.63-0.15 303.78-2.64L303.78-2.64Q303.83-4.05 303.85-5.91L303.85-5.91Q303.9-10.08 303.92-11.22 303.93-12.35 303.93-13.16L303.93-13.16 303.93-15.09Q303.93-15.48 303.92-16.05 303.9-16.63 303.89-17.3 303.88-17.97 303.83-18.6L303.83-18.6Q303.71-21.02 303.31-21.74 302.9-22.46 302.49-22.73L302.49-22.73 302.49-21.26Q302.49-17.02 302.3-16.3 302.12-15.58 301.72-15.21 301.32-14.84 300.53-14.58L300.53-14.58Q302-14.06 302.19-13.35L302.19-13.35Q302.49-12.28 302.49-7.35L302.49-7.35Z" opacity="1" transform="matrix(1,0,0,1,0,0)" fill="#ff9966" class="undefined-text-1" data-fill-palette-color="secondary" id="text-1"></path></svg></g></svg></g></svg></g></svg></g><g transform="matrix(1,0,0,1,432.42875286366433,0)"><svg viewBox="0 0 185.93830146460616 162.80858137918509" height="162.80858137918509" width="185.93830146460616"><g><svg xmlns="http://www.w3.org/2000/svg" xmlns:xlink="http://www.w3.org/1999/xlink" version="1.1" x="0" y="0" viewBox="7.279999732971191 10.020000457763672 85.43802642822266 74.80999755859375" enable-background="new 0 0 100 100" xml:space="preserve" height="162.80858137918509" width="185.93830146460616" class="icon-icon-0" data-fill-palette-color="accent" id="icon-0"><path d="M57.33 82.53v0.64h14v-0.64H57.33zM92.42 32.16L78.79 10.71c-0.13-0.41-0.521-0.69-0.96-0.69H22.17c-0.44 0-0.8 0.28-0.93 0.71L7.72 32.1c-0.2 0.13-0.44 1.88-0.44 1.88 0 8.37 8.78 3.9 12.25 3.9 0.6 0 0.73 0.95 0.73 4.39l0.01-7.31 0.06 25.89c0.28 10 1.19 3 4.17 2.99-0.62-1.33 0.01-15.78-0.07-17.31H24.4v-9.27c0.83 1.45 2.68 2.64 4.7 2.64h0.01c0.65 0 10.968 0 11.64 0 1.75 0 3.26-2.07 4.01-3.25 0.75 1.18 1.89 2.29 3.27 2.85 0.62 0.26 1.28 0.4 1.98 0.4 0.7 0 1.36-0.14 1.98-0.4 1.39-0.56 2.539-1.66 3.27-2.85 0.75 1.18 1.615 3.25 3.865 3.25 0.672 0 10.945-0.05 11.375-0.02 0.01 0 0.01 0 0.01 0 0.131 0.02 0.25 0.02 0.381 0.02 2.021 0 3.909-1.19 4.729-2.64v9.271h-0.149c-0.08 1.489 1.561 2.92 0.979 4.22 2.64-0.01 2.46 9.99 3.05 9.99h0.109l0.131-18.47c0-2.94 1.148-4.37 1.74-4.37 3.459 0 11.238 4.45 11.238-3.92C92.721 33.98 92.55 32.27 92.42 32.16zM12.8 32.88l11.24-19.21h4.73l-7.83 19.21H12.8zM40.94 32.88H25.8l7.24-19.21h9.73L40.94 32.88zM45.8 32.88l1.24-19.21h5.729l1.17 19.21H45.8zM58.8 32.88l-1.76-19.21h9.729l7.17 19.21H58.8zM78.8 32.88l-7.76-19.21h4.729l11.17 19.21H78.8zM57.33 83.17h14v-0.64h-14V83.17z" fill="#ff9966" data-fill-palette-color="accent"></path><path d="M30.93 39.56" fill="#ff9966" data-fill-palette-color="accent"></path><path d="M50.01 39.9c-0.7 0-1.36-0.14-1.98-0.4h3.96C51.37 39.76 50.71 39.9 50.01 39.9z" fill="#ff9966" data-fill-palette-color="accent"></path><path d="M79.5 46.5v26.33c0 6.63-5.37 12-12 12H32.17c-6.63 0-12-4.331-12-12V36.5c0 9.48 0.03 8.96 0.1 8.46 0.39-3.04 0.91 19.28 3.13 17.39l1-15.819 0.03 10c0.08 1.528 0.45 12.979 1.07 14.31 1.89 4.13 6.06 6.99 10.9 6.99h27.1c4.87 0 9.07-2.9 10.95-7.08 0.579-1.3 0.938-2.73 1.021-4.22l0.149-20v-3.87C78.01 44.86 79.5 43 79.5 46.5z" fill="#ff9966" data-fill-palette-color="accent"></path><path d="M57.125 77.232c0 3.279-2.658 5.938-5.938 5.938l0 0c-3.279 0-5.938-2.658-5.938-5.938v-10.13c0-3.279 2.658-5.938 5.938-5.938l0 0c3.279 0 5.938 2.658 5.938 5.938V77.232z" fill="#ff9966" data-fill-palette-color="accent"></path><path d="M71.75 46.625c0 1.174-0.951 2.125-2.125 2.125h-39.25c-1.174 0-2.125-0.951-2.125-2.125l0 0c0-1.174 0.951-2.125 2.125-2.125h39.25C70.799 44.5 71.75 45.451 71.75 46.625L71.75 46.625z" fill="#ff9966" data-fill-palette-color="accent"></path><path d="M71.75 53.625c0 1.174-0.951 2.125-2.125 2.125h-39.25c-1.174 0-2.125-0.951-2.125-2.125l0 0c0-1.174 0.951-2.125 2.125-2.125h39.25C70.799 51.5 71.75 52.451 71.75 53.625L71.75 53.625z" fill="#ff9966" data-fill-palette-color="accent"></path></svg></g></svg></g></svg></g><defs></defs></svg><rect width="395.52" height="104.13564185926151" fill="none" stroke="none" visibility="hidden"></rect></g></svg></g></svg>