<?xml version="1.0" encoding="utf-8"?>
<!-- Generator: Adobe Illustrator 23.0.5, SVG Export Plug-In . SVG Version: 6.00 Build 0)  -->
<svg version="1.1" id="Layer_1" xmlns="http://www.w3.org/2000/svg" xmlns:xlink="http://www.w3.org/1999/xlink" x="0px" y="0px"
	 viewBox="0 0 1920 1080" style="enable-background:new 0 0 1920 1080;" xml:space="preserve">
<style type="text/css">
	.st0{opacity:0.56;enable-background:new    ;}
	.st1{fill:#E2E2E2;}
	.st2{fill:#FFE3CA;}
	.st3{fill:#0B4870;}
	.st4{fill:#F7F7F7;}
	.st5{fill:#FFFFFF;stroke:#669FFF;stroke-miterlimit:10;}
	.st6{fill:#FFCEBD;}
	.st7{fill:#F8ABAD;}
	.st8{fill:#FFFEF6;}
	.st9{fill:#4B679E;}
	.st10{fill:url(#SVGID_1_);}
	.st11{fill:#DBDBDB;}
	.st12{fill:url(#SVGID_2_);}
	.st13{fill:#47484F;}
	.st14{fill:#FFFFFF;stroke:#FFB397;stroke-miterlimit:10;}
	.st15{fill:#4D5068;}
	.st16{fill:#FFBE55;}
	.st17{fill:url(#SVGID_3_);}
	.st18{fill:url(#SVGID_4_);}
	.st19{fill:#EDEDED;}
	.st20{fill:#FFFFFF;}
</style>
<g class="st0">
	<path class="st1" d="M1785.2,677.2v276.2H133.1V952c0.4-264.3,121.6-500.2,311.3-655.7c3.5-2.8,7-5.7,10.5-8.4
		c42.1-33.5,87.5-63,135.6-88c35-18.2,71.5-34.1,109.1-47.4c88.4-31.2,183.5-48.1,282.5-48.1c59.3,0,117.1,6.1,172.9,17.6
		c14.4,3,28.7,6.3,42.8,10c115.2,30.2,220.9,83.9,311.5,155.9c3.4,2.7,6.8,5.4,10.2,8.2C1640.3,395,1733.4,526.5,1785.2,677.2z"/>
</g>
<g>
	<g>
		<g>
			<polygon class="st2" points="1132.8,327.3 1155.6,166.7 1217.3,158.2 1249.4,326.1 			"/>
		</g>
		<g>
			<path class="st2" d="M1180.4,576.2l-0.1,18.1c0,3.7,0.5,7.3,1.5,10.9l1.6,5.6c1.3,4.6-2.1,9.1-6.9,9.1c-12.3,0-33.4,0-38.8,0
				c-0.9,0-1.8-0.6-1.8-1.5c-0.5-5.3,14.8-8.8,26.3-13.3c8.8-3.4,8.3-19.1,7.2-28.3c-0.4-3.5,2.5-6.4,6-6.1l0,0
				C1178.2,570.9,1180.5,573.3,1180.4,576.2z"/>
		</g>
		<g>
			<path class="st2" d="M1265.2,571.1l6.2,20.7c0.3,0.9,0.7,1.8,1.2,2.6l4.4,6.6c2.8,4.2,0.8,9.9-4,11.3c0,0-8.9,3.1-18.1,6.2
				c-9.4,3.1-21.2,0.5-21.2-2c0-5.5,5.1-1.1,13.8-6.9c2.9-1.9,5.9-3.9,8.5-6c7.4-5.8,0.9-20.6-3.6-28.9c-1.6-3,0.1-6.7,3.4-7.4
				l2.1-0.5C1261.1,566.2,1264.3,568,1265.2,571.1z"/>
		</g>
		<g>
			<path class="st3" d="M1201.5,328.9l-68.3-5.7c0,0-6.9,49.7,10.4,139.8c8.1,42.2,25,122.9,25,122.9c4.2,1.8,8.4,2.3,12.8,1.2
				c0,0,1.3-35.6,2.1-73.9c0.8-36.8,1-76,3.3-88.9C1191.4,398,1201.5,328.9,1201.5,328.9z"/>
		</g>
		<g>
			<path class="st3" d="M1187.4,329.7c-7.1,37.9-22.8,94.5,7.5,147.7c30.4,53.2,62.2,108.5,62.2,108.5c4.1,0.2,7.8-1.3,11.3-3.9
				c0,0-5.3-24.1-13-52.3c-8.8-32.2-20-70.1-16.8-89.9c6-37,12.8-86.3,10.7-110.3C1247.3,305.6,1191.1,309.8,1187.4,329.7z"/>
		</g>
		<g>
			<path class="st4" d="M1130.4,323.2l25.2-156.5l61.7-8.5l33.1,165.3c0.6,3.1-1.4,6.1-4.5,6.7c-11.5,2.2-39.2,6.7-70.2,6.7
				c-23.1,0-36.1-4.5-42.1-7.3C1131.3,328.4,1130,325.8,1130.4,323.2z"/>
		</g>
		<g>
			<path class="st5" d="M1198,168c0,11.3,2.1,22.4,5.9,33c7.5,20.7,18.8,59.9,12.1,94.5c-9.7,49.7-22.1,69.8-6,81.4
				c16.1,11.6,47-7.8,47.9-14.2c0.9-6.4-6-85.6-13.8-120s-29.8-83.6-29.8-83.6l-9.3,1C1201.1,160.5,1198,163.9,1198,168L1198,168z"
				/>
		</g>
		<g>
			<path class="st5" d="M1172.4,164.4c0,0-10.7,23.1-7,56.3s12.4,134.3-17.8,149.6c-9.6,4.8-31.4-16.6-31.4-24.5
				c0-7.9,7.3-34.5,14.2-58.7c6.9-24.2,23.6-120.2,23.6-120.2L1172.4,164.4z"/>
		</g>
		<g>
			<g>
				<path class="st6" d="M1181,92.8c13.8,0,18.9,9.8,19.2,27.9c0.1,6.8-3,13.5-5.4,17.8c-1.8,3.2-2.3,7-1.3,10.5l3,10.2
					c2.1,9.5-2.5,14.7-9.1,16.6c-3.3,0.9-7.2,0.2-10.1-1.6c-3.4-2.2-3.7-7-3.1-11l0.8-2.9c1.1-3.9-1.2-8.2-5.2-9
					c-10.6-2.3-12.1-13.4-15-30.5C1151.8,102.8,1167.2,92.8,1181,92.8z"/>
			</g>
			<g>
				<path class="st3" d="M1148.9,84.8l7.9,2.4c2.9,0.9,6,0.9,8.9,0.1l15.8-4.6c9.5,0,25.3,5.4,23.3,19.2l-1.8,9.7
					c-0.7,3.9-3.9,6.8-7.9,7.1l0,0c-0.4,1.3-1.6,2.3-3,2.3c-1.7,0-3.1-1.4-3.1-3.1l0,0c0-4.4-3.1-8.1-7.4-9.1
					c-5.3-1.2-10.9-1.5-16.8,0.1c-11,2.9-22.5-3.8-23.6-15.1c-0.1-0.7-0.1-1.4-0.1-2.2C1141.3,87.1,1145,83.7,1148.9,84.8z"/>
			</g>
			<g>
				<path class="st2" d="M1192.6,121c0,4.2,1.6,7.6,5.6,7.6s6.6-5.8,6.6-10c0-4.2-2.6-5.2-6.6-5.2
					C1194.1,113.4,1192.6,116.8,1192.6,121z"/>
			</g>
		</g>
	</g>
	<g>
		<path class="st7" d="M1194.2,139.5c0,0-10.3,14.1-23.1,12.2c0,0,2.7,1.3,3.3,3.3C1174.5,155,1186.6,154.1,1194.2,139.5z"/>
	</g>
</g>
<g>
	<path class="st8" d="M1519.5,287.9v664.8h-451.6c-5-26.5-29-48.7-56-50.6c-18.2-1.3-38.1,5.2-53.9-4c-16.3-9.4-20.3-30.9-21.4-49.7
		c-1.2-18.8-2.1-39.8-15.6-52.8c-13-12.4-32.9-13-50.8-13.4c-29.8-0.7-62.9-4.3-82.2-27c-15.6-18.4-17.7-45.3-11.4-68.6
		c6.3-23.3,19.9-43.7,33.2-63.8c12-18,24-36,36-54c14.1-21.1,28.7-46.3,20.8-70.3c-10.5-31.8-54.6-42.1-66.4-73.5
		c-7.7-20.1,0.1-44.2-9.7-63.4c-6.9-13.3-21.1-21.4-35.6-25.6c-28.6-8.3-60.6-3.7-85.7,12.4c-15.7,10.1-28.5,24.3-44,34.8
		c-15.5,10.5-35.5,17.3-52.8,10.3c-18-7.3-27.4-26.8-42.4-39.1c-15.8-12.9-37.4-17.1-57.7-14.9c-9.5,1.1-18.7,3.3-27.7,6.5v-58.1
		H1519.5z"/>
</g>
<g>
	<g>
		<path class="st9" d="M1464.2,329.4c-0.2,0.3-1.1,0.6-1.7,0.6h-1.7c-1.5,0-2.4-0.7-1.8-1.4l7.4-7.6l-7.4-7.6
			c-0.6-0.7,0.2-1.4,1.8-1.4h1.7c0.7,0,1.5,0.3,1.7,0.6l5.2,5.3c1.7-1.8,3.4-3.5,5.1-5.3c0.2-0.3,1.1-0.6,1.7-0.6h1.7
			c1.5,0,2.4,0.7,1.7,1.4l-7.3,7.6l7.4,7.6c0.7,0.7-0.2,1.4-1.7,1.4h-1.7c-0.7,0-1.5-0.3-1.8-0.6l-5.1-5.3L1464.2,329.4z"/>
	</g>
</g>
<g>
	<g>
		<path class="st9" d="M1441.2,306.8h-17.8c-2.4,0-4.4,2-4.4,4.4v7h3.9v-7c0-0.3,0.2-0.5,0.5-0.5h17.8c0.3,0,0.5,0.2,0.5,0.5v8.9
			c0,0.3-0.2,0.5-0.5,0.5h-10v3.9h10c2.4,0,4.4-2,4.4-4.4v-8.9C1445.5,308.7,1443.6,306.8,1441.2,306.8z"/>
	</g>
</g>
<g>
	<g>
		<path class="st9" d="M1430.7,314.3h-17.8c-2.4,0-4.3,2-4.3,4.4v8.9c0,2.4,1.9,4.4,4.3,4.4h17.8c2.4,0,4.4-2,4.4-4.4v-8.9
			C1435.1,316.2,1433.1,314.3,1430.7,314.3z M1431.2,327.5c0,0.3-0.2,0.5-0.5,0.5h-17.8c-0.2,0-0.5-0.2-0.5-0.5v-8.9
			c0-0.3,0.2-0.5,0.5-0.5h17.8c0.3,0,0.5,0.2,0.5,0.5V327.5z"/>
	</g>
</g>
<g>
	<path class="st9" d="M1395.1,321h-22.3c-0.7,0-1.3-0.6-1.3-1.3v-2.9c0-0.7,0.6-1.3,1.3-1.3h22.3c0.7,0,1.3,0.6,1.3,1.3v2.9
		C1396.4,320.4,1395.8,321,1395.1,321z"/>
</g>
<g>
	
		<linearGradient id="SVGID_1_" gradientUnits="userSpaceOnUse" x1="709.4026" y1="605.1655" x2="905.4005" y2="574.0547" gradientTransform="matrix(0.9914 -0.1311 0.1311 0.9914 -66.8218 138.9993)">
		<stop  offset="0" style="stop-color:#ACFAFF"/>
		<stop  offset="1" style="stop-color:#669FFF"/>
	</linearGradient>
	<polygon class="st10" points="912.6,361.3 1417,385 1403.7,667.8 899.3,644.1 	"/>
</g>
<g>
	<rect x="132.9" y="952" class="st11" width="1652.3" height="128"/>
</g>
<g>
	<linearGradient id="SVGID_2_" gradientUnits="userSpaceOnUse" x1="377.4349" y1="945.0135" x2="1740.0872" y2="-118.9753">
		<stop  offset="0" style="stop-color:#ACFAFF"/>
		<stop  offset="1" style="stop-color:#669FFF"/>
	</linearGradient>
	<path class="st12" d="M1067.9,952.7H444.4V345.9c9-3.1,18.2-5.4,27.7-6.5c20.3-2.2,41.9,2.1,57.7,14.9c15,12.3,24.5,31.7,42.4,39.1
		c17.3,7,37.4,0.2,52.8-10.3s28.2-24.7,44-34.8c25-16.1,57.1-20.7,85.7-12.4c14.4,4.2,28.7,12.3,35.6,25.6
		c9.9,19.2,2.1,43.2,9.7,63.4c11.9,31.4,55.9,41.7,66.4,73.5c8,24.1-6.7,49.3-20.8,70.3c-12,18-24,36-36,54
		c-13.3,20.1-26.9,40.5-33.2,63.8c-6.3,23.3-4.2,50.2,11.4,68.6c19.3,22.6,52.5,26.3,82.2,27c18,0.4,37.8,1,50.8,13.4
		c13.6,13,14.5,34,15.6,52.8c1.1,18.8,5.1,40.3,21.4,49.7c15.8,9.1,35.7,2.6,53.9,4C1038.9,904,1063,926.1,1067.9,952.7z"/>
</g>
<g>
	<path class="st6" d="M1069,377.5c0.1-4.1,0.6-8.3,0.4-9.9c-0.1-0.7-0.8-2.5-0.9-3c-0.5-1.6-1.5-3.9-1.1-5.5l1.6-6.7
		c0.8-3.2-0.1-6.1-3.4-6.9l0,0c-3.5-0.9-5.9,1.7-6.3,5.3l-1.2,4.7c-0.4,2.9-2,5.3-3.5,7.8c-3,5-3.3,11.8-2.9,17.3
		c0.2,3.4,3.8,6.4,8.7,10.1c2.4,1.8,6.8,3.9,5.8,0.2c-0.8-3.1-7.9-9.2-3.3-17.2c0.2-0.4,0.9-1.4,1.4-1.2c1.6,0.4,1,4,1.4,5.9
		c0.5,2.7,1.9,4.1,3.1,4.1C1069.9,382.4,1069,380.5,1069,377.5z"/>
</g>
<g>
	<path class="st5" d="M1147.6,169.1c0,0-69.7,57-79.4,96.2c-5.9,23.6-9.2,73.9-10,85.5c-0.1,1.5,0.8,2.8,2.2,3.4
		c0.9,0.3,1.9,0.7,2.9,0.9c1,0.2,2.3,0.4,3.5,0.6c2,0.2,3.9-1.1,4.4-3.1c3.4-14.8,17-72.9,23.8-83.6c7.8-12.2,67.1-64.7,71.5-78.5
		C1170.8,176.7,1163.2,161.2,1147.6,169.1z"/>
</g>
<g>
	<path class="st6" d="M1252.5,383.8c0.9-4,1.4-8.2,2-9.8c0.2-0.7,1.4-2.2,1.7-2.7c0.9-1.4,2.4-3.4,2.4-5.1l0.1-6.9
		c0-3.3,1.6-5.9,5-5.9l0,0c3.6,0,5.3,3.1,4.8,6.7v4.8c-0.3,2.9,0.7,5.6,1.5,8.4c1.7,5.6,0.3,12.3-1.4,17.5c-1,3.3-5.2,5.3-10.9,7.7
		c-2.8,1.2-7.5,2.1-5.7-1.2c1.5-2.8,9.9-7,7.4-15.9c-0.1-0.4-0.5-1.5-1.1-1.6c-1.7,0-2,3.6-2.8,5.4c-1.1,2.5-2.9,3.6-4,3.3
		C1250.4,388.3,1251.8,386.7,1252.5,383.8z"/>
</g>
<g>
	<path class="st5" d="M1227,162.5c0,0,53.7,72.2,53.6,112.6c-0.1,24.4-9,74-11.1,85.4c-0.3,1.5-1.5,2.6-2.9,2.7
		c-0.9,0.1-2,0.2-3,0.2c-1,0-2.3-0.1-3.6-0.3c-2-0.3-3.5-2.1-3.5-4.1c0.3-15.1,1.3-74.9-2.7-86.8c-4.6-13.7-49.4-79.1-50.3-93.5
		C1202.6,164.2,1213.8,151.1,1227,162.5z"/>
</g>
<g>
	<circle class="st4" cx="951.3" cy="397" r="17.4"/>
</g>
<g>
	<circle class="st4" cx="1382.6" cy="414.8" r="17.4"/>
</g>
<g>
	<g>
		<g>
			<polygon class="st2" points="532.5,690.2 511.2,540.6 453.8,532.7 423.9,689.1 			"/>
		</g>
		<g>
			<path class="st6" d="M488.1,921.9l0.1,16.9c0,3.4-0.5,6.8-1.4,10.1l-1.5,5.2c-1.2,4.3,2,8.5,6.4,8.5c11.5,0,31.1,0,36.2,0
				c0.8,0,1.6-0.6,1.7-1.4c0.4-4.9-13.8-8.2-24.5-12.4c-8.2-3.2-7.7-17.8-6.7-26.4c0.4-3.2-2.3-6-5.6-5.7l0,0
				C490.2,916.9,488.1,919.2,488.1,921.9z"/>
		</g>
		<g>
			<path class="st6" d="M409.2,917.2l-5.8,19.3c-0.3,0.9-0.6,1.7-1.1,2.4l-4.1,6.1c-2.6,3.9-0.7,9.2,3.7,10.5c0,0,8.3,2.9,16.9,5.7
				c8.8,2.9,19.8,0.5,19.8-1.8c0-5.1-4.8-1.1-12.8-6.4c-2.7-1.8-5.5-3.7-7.9-5.6c-6.9-5.4-0.9-19.1,3.3-26.9
				c1.5-2.8-0.1-6.2-3.2-6.9l-2-0.4C413,912.6,410.1,914.3,409.2,917.2z"/>
		</g>
		<g>
			<path class="st13" d="M468.5,691.6l63.6-5.3c0,0,6.4,46.3-9.7,130.1c-7.5,39.3-23.3,114.4-23.3,114.4c-3.9,1.7-7.9,2.1-11.9,1.1
				c0,0-1.2-33.1-1.9-68.8c-0.7-34.2-0.9-70.8-3.1-82.8C477.9,755.9,468.5,691.6,468.5,691.6z"/>
		</g>
		<g>
			<path class="st13" d="M481.7,692.4c6.6,35.3,21.2,88-7,137.5c-28.3,49.5-58,101-58,101c-3.8,0.2-7.3-1.2-10.5-3.7
				c0,0,5-22.5,12.1-48.7c8.2-30,18.6-65.3,15.6-83.7c-5.5-34.5-11.9-80.4-10-102.7C425.9,670,478.2,673.9,481.7,692.4z"/>
		</g>
		<g>
			<path class="st4" d="M534.7,686.4l-23.5-145.7l-57.4-7.9l-30.9,153.9c-0.6,2.9,1.3,5.7,4.2,6.3c10.7,2,36.5,6.3,65.3,6.3
				c21.5,0,33.6-4.2,39.2-6.8C533.9,691.2,535.1,688.8,534.7,686.4z"/>
		</g>
		<g>
			<path class="st14" d="M471.7,541.8c0,10.5-1.9,20.9-5.5,30.8c-7,19.3-17.5,55.8-11.3,88c9,46.3,20.6,65,5.6,75.8
				c-15,10.8-43.8-7.2-44.6-13.2s5.6-79.7,12.9-111.7c7.3-31.9,27.7-77.9,27.7-77.9l8.7,0.9C468.9,534.9,471.7,538.1,471.7,541.8
				L471.7,541.8z"/>
		</g>
		<g>
			<path class="st14" d="M495.7,538.5c0,0,10,21.5,6.5,52.4c-3.5,30.9-11.5,125.1,16.6,139.3c8.9,4.5,29.3-15.4,29.3-22.8
				s-6.8-32.2-13.2-54.7c-6.4-22.5-21.9-111.9-21.9-111.9L495.7,538.5z"/>
		</g>
		<g>
			<g>
				<path class="st2" d="M487.6,471.8c-12.8,0-17.6,9.1-17.8,26c-0.1,6.3,2.8,12.6,5,16.6c1.7,3,2.2,6.5,1.2,9.8l-2.8,9.5
					c-1.9,8.8,2.3,13.7,8.5,15.4c3.1,0.9,6.7,0.2,9.4-1.5c3.2-2.1,3.4-6.5,2.9-10.2l-0.7-2.7c-1-3.7,1.1-7.6,4.8-8.4
					c9.9-2.2,11.3-12.4,13.9-28.4C514.8,481.1,500.5,471.8,487.6,471.8z"/>
			</g>
			<g>
				<path class="st15" d="M517.5,464.4l-7.3,2.2c-2.7,0.8-5.6,0.8-8.3,0.1l-14.7-4.3c-8.9,0-23.6,5-21.7,17.8l1.6,9.1
					c0.7,3.6,3.7,6.3,7.3,6.6l0,0c0.3,1.3,1.5,2.1,2.8,2.1c1.6,0,2.9-1.3,2.9-2.9l0,0c0-4.1,2.9-7.6,6.9-8.5
					c4.9-1.1,10.1-1.4,15.6,0.1c10.2,2.7,21-3.6,22-14.1c0.1-0.7,0.1-1.3,0.1-2C524.6,466.5,521.1,463.4,517.5,464.4z"/>
			</g>
			<g>
				<path class="st2" d="M476.9,498.1c0,3.9-1.5,7.1-5.2,7.1c-3.8,0-6.2-5.4-6.2-9.3c0-3.9,2.4-4.9,6.2-4.9
					C475.4,491,476.9,494.2,476.9,498.1z"/>
			</g>
		</g>
	</g>
	<g>
		<path class="st16" d="M475.3,515.3c0,0,9.6,13.2,21.5,11.4c0,0-2.5,1.2-3.1,3.1C493.7,529.7,482.4,528.9,475.3,515.3z"/>
	</g>
</g>
<g>
	<path class="st6" d="M685.7,535.3c-3.4,1.7-7.1,3.1-8.4,4c-0.5,0.3-1.7,1.7-2.1,2.1c-1.1,1.1-2.5,3-4,3.3l-6.2,1.6
		c-3,0.7-5,2.8-4.2,5.8l0,0c0.8,3.3,4,4.1,7.1,2.9l4.4-1.1c2.5-0.9,5.2-0.6,7.9-0.5c5.5,0.3,11.2-2.5,15.5-5.1
		c2.7-1.7,3.6-5.9,4.5-11.6c0.4-2.8,0.3-7.3-2.4-4.9c-2.2,2-4.1,10.5-12.7,10.2c-0.4,0-1.5-0.1-1.6-0.6c-0.4-1.5,2.9-2.6,4.3-3.7
		c2-1.6,2.6-3.4,2.1-4.3C689.4,532.4,688.1,534.1,685.7,535.3z"/>
</g>
<g>
	<path class="st14" d="M504.3,573.7c0,0,52.8,20.2,89.4,11.1c22-5.4,64.9-24.5,74.8-29c1.3-0.6,2-1.9,1.8-3.3
		c-0.1-0.9-0.3-1.9-0.5-2.8c-0.2-0.9-0.6-2.1-1.1-3.2c-0.7-1.8-2.6-2.7-4.5-2.2c-13.6,3.6-67.4,17.7-79.1,16.7
		c-13.4-1.1-58.9-22.7-72.2-20.3C499.6,543.2,512.4,562.8,504.3,573.7z"/>
</g>
<g>
	<path class="st6" d="M421.1,742.8c-0.9-3.8-1.3-7.6-1.8-9.1c-0.2-0.6-1.3-2.1-1.5-2.5c-0.8-1.3-2.3-3.2-2.3-4.7l-0.1-6.4
		c0-3.1-1.5-5.5-4.6-5.5l0,0c-3.4,0-4.9,2.9-4.5,6.2v4.5c0.3,2.7-0.6,5.2-1.4,7.8c-1.6,5.2-0.3,11.4,1.3,16.3
		c1,3.1,4.9,4.9,10.2,7.1c2.6,1.1,7,2,5.3-1.2c-1.4-2.6-9.2-6.5-6.9-14.8c0.1-0.4,0.5-1.4,1-1.4c1.5,0,1.8,3.4,2.6,5.1
		c1,2.4,2.7,3.3,3.7,3.1C423,747,421.7,745.4,421.1,742.8z"/>
</g>
<g>
	<path class="st14" d="M444.8,536.7c0,0-50,67.2-49.9,104.9c0.1,22.7,8.4,68.9,10.4,79.5c0.3,1.4,1.4,2.4,2.7,2.5
		c0.9,0.1,1.9,0.2,2.8,0.2c0.9,0,2.2-0.1,3.3-0.3c1.9-0.3,3.3-1.9,3.2-3.8c-0.3-14.1-1.2-69.7,2.5-80.8c4.3-12.8,46-73.6,46.8-87.1
		C467.5,538.3,457.1,526.1,444.8,536.7z"/>
</g>
<g>
	<g>
		<linearGradient id="SVGID_3_" gradientUnits="userSpaceOnUse" x1="592.1686" y1="407.0574" x2="662.9457" y2="384.5021">
			<stop  offset="0" style="stop-color:#ACFAFF"/>
			<stop  offset="1" style="stop-color:#669FFF"/>
		</linearGradient>
		<path class="st17" d="M753.4,361c4.6,0.7,7.7,5,7,9.5c-0.3,2.3-1.6,4.2-3.3,5.5c-1.7,1.3-3.9,1.9-6.2,1.5l-55.9-8.5
			c-4.6-0.7-7.7-5-7-9.6c0.3-2.3,1.6-4.2,3.3-5.5c1.7-1.3,3.9-1.9,6.2-1.5L753.4,361z"/>
	</g>
	<g>
		<path class="st15" d="M717.8,393.8l-24.9,163.3c-0.1,0.8-0.9,1.3-1.6,1.2l-3.9-0.6c-0.8-0.1-1.3-0.9-1.2-1.6L711,392.8
			c0.1-0.8,0.9-1.3,1.6-1.2l3.9,0.6C717.4,392.3,717.9,393,717.8,393.8z"/>
	</g>
	<g>
		<g>
			<linearGradient id="SVGID_4_" gradientUnits="userSpaceOnUse" x1="676.0074" y1="374.2757" x2="716.1196" y2="374.2757">
				<stop  offset="0" style="stop-color:#FC7318"/>
				<stop  offset="1" style="stop-color:#FEB423"/>
			</linearGradient>
			<path class="st18" d="M713.5,392c-0.5-0.1-0.9-0.6-0.8-1.1l1.3-8.6l-37.2-5.7c-0.5-0.1-0.9-0.6-0.8-1.1l2.8-18.1
				c0.1-0.5,0.6-0.9,1.1-0.8l7.5,1.1c0.5,0.1,0.9,0.6,0.8,1.1c-0.1,0.5-0.6,0.9-1.1,0.8l-6.5-1l-2.5,16.2l37.2,5.7
				c0.5,0.1,0.9,0.6,0.8,1.1l-1.5,9.6C714.6,391.7,714.1,392.1,713.5,392z"/>
		</g>
	</g>
</g>
<g>
	<path class="st15" d="M508.9,513.7c0,0-3-5-12.1-3.1c-9.2,1.9-11.9,6.4-14.1,2.1c-2.1-4.4-2.3-19.5-2.3-19.5l-3.8,2.3
		c0,0,1.6,6.5-1.3,9.2c-2.9,2.7-5.7,10.1-0.9,15.4c4.8,5.3,4.4,10.4,4.4,10.4l0.4-5.5l2.1,6l0.5-3.8l10,9.8l11.4-11.4l-0.7,3.5
		C502.6,528.9,510.3,518.3,508.9,513.7z"/>
</g>
<g>
	<path class="st19" d="M555.2,113.4h-205c-13.1,0-23.7-10.6-23.7-23.7l0,0c0-13.1,10.6-23.7,23.7-23.7h205
		c13.1,0,23.7,10.6,23.7,23.7l0,0C578.9,102.8,568.3,113.4,555.2,113.4z"/>
</g>
<g>
	<path class="st19" d="M431.5,288.6h-205c-13.1,0-23.7-10.6-23.7-23.7l0,0c0-13.1,10.6-23.7,23.7-23.7h205
		c13.1,0,23.7,10.6,23.7,23.7l0,0C455.2,277.9,444.6,288.6,431.5,288.6z"/>
</g>
<g>
	<path class="st19" d="M1519.5,113.4h-205c-13.1,0-23.7-10.6-23.7-23.7l0,0c0-13.1,10.6-23.7,23.7-23.7h205
		c13.1,0,23.7,10.6,23.7,23.7l0,0C1543.2,102.8,1532.6,113.4,1519.5,113.4z"/>
</g>
<g>
	<path class="st19" d="M1694.4,198.3h-205c-13.1,0-23.7-10.6-23.7-23.7l0,0c0-13.1,10.6-23.7,23.7-23.7h205
		c13.1,0,23.7,10.6,23.7,23.7l0,0C1718.1,187.7,1707.5,198.3,1694.4,198.3z"/>
</g>
<path class="st20" d="M983.1,495.9l3.3-65.4l13.1,0.7l17.1,33.8c1.3,2.6,2.5,5.3,3.6,7.9c1.1,2.7,2.1,5.4,3,8.1
	c-0.2-1.9-0.4-4-0.4-6.2c0-2.2,0-4.6,0.1-7.1l1.8-35.2l11.4,0.6l-3.3,65.4l-11.4-0.6l-18.7-34.8c-1-2-2.1-4.3-3.2-7
	c-1.1-2.7-2.2-5.7-3.4-9.1c0.2,1.8,0.3,3.8,0.3,5.9c0,2.1,0,4.6-0.2,7.4l-1.8,36.1L983.1,495.9z"/>
<path class="st20" d="M1052.8,475.8c0.4-7.7,2.5-13.6,6.2-17.7c3.8-4.1,8.8-6,15.1-5.7s11.2,2.7,14.5,7.2c3.3,4.5,4.8,10.6,4.4,18.3
	c-0.4,7.7-2.5,13.6-6.3,17.7c-3.8,4.1-8.8,6-15.1,5.7c-6.3-0.3-11.1-2.7-14.5-7.2S1052.4,483.4,1052.8,475.8z M1064,476.3
	c-0.3,5,0.3,8.8,1.7,11.3c1.4,2.5,3.5,3.9,6.5,4c3,0.2,5.3-1,6.9-3.4s2.5-6.1,2.8-11.1c0.3-5-0.3-8.8-1.6-11.3
	c-1.3-2.5-3.5-3.8-6.5-4c-3-0.2-5.3,1-6.9,3.4C1065.2,467.7,1064.3,471.4,1064,476.3z"/>
<path class="st20" d="M1173.9,500.5c-1.8,1.9-3.7,3.3-5.8,4.2c-2.1,0.9-4.5,1.2-7.2,1.1c-5.4-0.3-9.7-2.8-12.9-7.5
	s-4.6-10.7-4.3-17.9c0.4-7.3,2.3-13.1,5.9-17.4s8-6.4,13.3-6.1c2.4,0.1,4.4,0.7,6.2,1.6s3.4,2.4,5,4.4l1.1-22.7l10.9,0.6l-2.7,54.4
	c-0.1,1.1-0.1,2.6-0.1,4.5c0,1.8,0,4,0.1,6.5l-8.6-0.4L1173.9,500.5z M1172.7,492.9l1.1-22.4c-1.5-1.5-2.9-2.6-4.1-3.2
	c-1.3-0.7-2.6-1.1-4-1.1c-3.1-0.2-5.6,1.1-7.5,3.7s-3,6.3-3.2,11.1c-0.2,4.8,0.4,8.6,2.1,11.3c1.6,2.7,4,4.1,7.2,4.3
	c1.4,0.1,2.8-0.2,4.1-0.7C1169.7,495.3,1171.1,494.3,1172.7,492.9z"/>
<path class="st20" d="M1228.2,508.3l-0.8-4.2c-2.2,1.4-4.5,2.5-6.9,3.2s-4.8,0.9-7.4,0.8c-3.9-0.2-6.9-1.5-9.1-3.8
	c-2.1-2.3-3.1-5.5-2.9-9.4c0.3-5.2,2.6-9.1,7.1-11.9s11.3-4.5,20.6-5.1l0.2-3.7c0.1-1.7-0.4-3.1-1.5-4.1c-1.1-1-2.7-1.5-4.9-1.7
	s-4.1,0.2-5.9,1.1c-1.8,0.8-3.4,2.1-4.7,3.8l-7.3-5.2c2.1-2.9,4.7-5.1,7.8-6.5c3.1-1.4,6.7-2,10.7-1.8c5.4,0.3,9.6,1.7,12.5,4.3
	c2.9,2.6,4.3,6.1,4,10.5l-1.4,27.7c0,0.7,0,1.6,0,2.7s0.2,2.3,0.3,3.7L1228.2,508.3z M1228.2,485.3c-5.4,0.5-9.4,1.4-11.9,2.9
	c-2.5,1.5-3.9,3.6-4,6.3c-0.1,1.6,0.3,2.9,1.1,3.8s2.1,1.4,3.7,1.5c1.8,0.1,3.5-0.2,5.3-1c1.8-0.7,3.5-1.9,5.3-3.5L1228.2,485.3z"/>
<path class="st20" d="M1272.1,496.3c-0.1,2.3,0.1,3.8,0.7,4.5c0.6,0.7,1.8,1.1,3.5,1.2c0.7,0,1.5,0,2.2,0s1.6-0.1,2.4-0.1l-0.5,9.2
	c-1.2,0.2-2.7,0.3-4.3,0.4c-1.6,0.1-3.3,0.1-5,0c-3.8-0.2-6.6-1.2-8.3-3.1c-1.7-1.9-2.4-4.7-2.2-8.5l1.4-27.9l-6.1-0.3l0.5-9.2
	l6.1,0.3l0.8-15.1l11.2,0.6l-0.8,15.1l9.2,0.5l-0.5,9.2l-9.2-0.5L1272.1,496.3z"/>
<path class="st20" d="M1321.4,513l-0.8-4.2c-2.2,1.4-4.5,2.5-6.9,3.2s-4.8,0.9-7.4,0.8c-3.9-0.2-6.9-1.5-9.1-3.8
	c-2.1-2.3-3.1-5.5-2.9-9.4c0.3-5.2,2.6-9.1,7.1-11.9s11.3-4.5,20.6-5.1l0.2-3.7c0.1-1.7-0.4-3.1-1.5-4.1c-1.1-1-2.7-1.5-4.9-1.7
	s-4.1,0.2-5.9,1.1c-1.8,0.8-3.4,2.1-4.7,3.8l-7.3-5.2c2.1-2.9,4.7-5.1,7.8-6.5c3.1-1.4,6.7-2,10.7-1.8c5.4,0.3,9.6,1.7,12.5,4.3
	c2.9,2.6,4.3,6.1,4,10.5l-1.4,27.7c0,0.7,0,1.6,0,2.7s0.2,2.3,0.3,3.7L1321.4,513z M1321.4,490c-5.4,0.5-9.4,1.4-11.9,2.9
	c-2.5,1.5-3.9,3.6-4,6.3c-0.1,1.6,0.3,2.9,1.1,3.8c0.8,0.9,2.1,1.4,3.7,1.5c1.8,0.1,3.5-0.2,5.3-1c1.8-0.7,3.5-1.9,5.3-3.5
	L1321.4,490z"/>
<path class="st20" d="M1038,606.9l3.3-65.4l41.3,2.1l-0.5,10.6l-28.8-1.5l-0.8,15.4l21.8,1.1l-0.5,10.6l-21.8-1.1l-1.5,28.8
	L1038,606.9z"/>
<path class="st20" d="M1091,585.9c0.4-7.7,2.5-13.6,6.2-17.7c3.8-4.1,8.8-6,15.1-5.7s11.2,2.7,14.5,7.2c3.3,4.5,4.8,10.6,4.4,18.3
	c-0.4,7.7-2.5,13.6-6.3,17.7c-3.8,4.1-8.8,6-15.1,5.7s-11.1-2.7-14.5-7.2S1090.6,593.5,1091,585.9z M1102.2,586.5
	c-0.3,5,0.3,8.8,1.7,11.3c1.4,2.5,3.5,3.9,6.5,4c3,0.2,5.3-1,6.9-3.4c1.6-2.4,2.5-6.1,2.8-11.1c0.3-5-0.3-8.8-1.6-11.3
	c-1.3-2.5-3.5-3.8-6.5-4c-3-0.2-5.3,1-6.9,3.4C1103.4,577.9,1102.4,581.5,1102.2,586.5z"/>
<path class="st20" d="M1175.4,608.3c-3,2.2-5.6,3.7-7.9,4.5c-2.3,0.9-4.7,1.2-7.1,1.1c-4.4-0.2-7.6-1.7-9.6-4.3
	c-2.1-2.6-3-6.5-2.7-11.6l1.7-32.8l11.2,0.6l-1.5,30.6c-0.2,3,0.2,5.2,0.9,6.6c0.8,1.3,2.1,2.1,4.1,2.2c1.6,0.1,3.3-0.3,5-1
	c1.7-0.8,3.6-2,5.6-3.7l1.7-33.7l11.1,0.6l-2.4,47.1l-10.2-0.5L1175.4,608.3z"/>
<path class="st20" d="M1206,615.4l2.4-47.1l10.3,0.5l-0.3,5.6c3-2.2,5.7-3.8,8-4.6c2.3-0.9,4.6-1.2,6.9-1.1c4.4,0.2,7.6,1.7,9.7,4.4
	c2.1,2.7,3,6.6,2.7,11.6l-1.7,32.7l-11.2-0.6l1.5-30.6c0.2-3-0.1-5.2-0.9-6.5s-2.1-2-4-2.1c-1.6-0.1-3.3,0.3-5.1,1s-3.6,2-5.6,3.7
	l-1.7,33.7L1206,615.4z"/>
<path class="st20" d="M1292.9,614.7c-1.8,1.9-3.7,3.3-5.8,4.2c-2.1,0.9-4.5,1.2-7.2,1.1c-5.4-0.3-9.7-2.8-12.9-7.5
	c-3.2-4.7-4.6-10.7-4.3-17.9c0.4-7.3,2.3-13.1,5.9-17.4c3.6-4.3,8-6.4,13.3-6.1c2.4,0.1,4.4,0.7,6.2,1.6c1.8,0.9,3.4,2.4,5,4.4
	l1.1-22.7l10.9,0.6l-2.7,54.4c-0.1,1.1-0.1,2.6-0.1,4.5c0,1.8,0,4,0.1,6.5l-8.6-0.4L1292.9,614.7z M1291.6,607.1l1.1-22.4
	c-1.5-1.5-2.9-2.6-4.1-3.2c-1.3-0.7-2.6-1.1-4-1.1c-3.1-0.2-5.6,1.1-7.5,3.7c-1.9,2.6-3,6.3-3.2,11.1c-0.2,4.8,0.4,8.6,2.1,11.3
	s4,4.1,7.2,4.3c1.4,0.1,2.8-0.2,4.1-0.7C1288.6,609.5,1290,608.5,1291.6,607.1z"/>
</svg>
