<svg id="Group_9992" data-name="Group 9992" xmlns="http://www.w3.org/2000/svg" width="18.854" height="21.266" viewBox="0 0 18.854 21.266">
  <g id="Group_9991" data-name="Group 9991" transform="translate(0)">
    <path id="Path_16319" data-name="Path 16319" d="M58.668,104.512h0l-5.038-.742-2.256-4.543a.464.464,0,0,0-.8,0l-2.256,4.543-5.038.742a.464.464,0,0,0-.247.8l3.647,3.524-.865,5.007a.452.452,0,0,0,.649.495l4.513-2.349,4.513,2.349.185.062a.371.371,0,0,0,.278-.093.433.433,0,0,0,.185-.464l-.865-5.007,3.647-3.524a.464.464,0,0,0-.247-.8Z" transform="translate(-41.544 -93.137)" fill="#b8c5d3"/>
    <path id="Path_16320" data-name="Path 16320" d="M169.748,4.018a.464.464,0,0,0,.464-.464V.464a.464.464,0,0,0-.927,0V3.554A.464.464,0,0,0,169.748,4.018Z" transform="translate(-160.475)" fill="#b8c5d3"/>
    <path id="Path_16321" data-name="Path 16321" d="M294.656,53.558a.5.5,0,0,0-.649.093l-1.854,2.473a.464.464,0,0,0,.093.649.494.494,0,0,0,.278.093.433.433,0,0,0,.371-.185l1.854-2.473A.464.464,0,0,0,294.656,53.558Z" transform="translate(-275.988 -50.313)" fill="#b8c5d3"/>
    <path id="Path_16322" data-name="Path 16322" d="M22.705,56.866a.5.5,0,0,0,.278-.093.464.464,0,0,0,.093-.649l-1.854-2.473a.494.494,0,0,0-.649-.093.464.464,0,0,0-.093.649l1.854,2.473A.432.432,0,0,0,22.705,56.866Z" transform="translate(-20.387 -50.314)" fill="#b8c5d3"/>
  </g>
</svg>
