<svg id="list_1_" data-name="list (1)" xmlns="http://www.w3.org/2000/svg" width="24.075" height="24.075" viewBox="0 0 24.075 24.075">
  <g id="Group_9942" data-name="Group 9942">
    <path id="Path_16299" data-name="Path 16299" d="M21.5,0H2.579A2.579,2.579,0,0,0,0,2.579V21.5a2.579,2.579,0,0,0,2.579,2.579H21.5A2.579,2.579,0,0,0,24.075,21.5V2.579A2.579,2.579,0,0,0,21.5,0ZM7.738,18.916H5.159a.86.86,0,1,1,0-1.72H7.738a.86.86,0,1,1,0,1.72Zm0-6.019H5.159a.86.86,0,0,1,0-1.72H7.738a.86.86,0,0,1,0,1.72Zm0-6.019H5.159a.86.86,0,1,1,0-1.72H7.738a.86.86,0,1,1,0,1.72ZM18.916,18.916H11.178a.86.86,0,1,1,0-1.72h7.738a.86.86,0,0,1,0,1.72Zm0-6.019H11.178a.86.86,0,1,1,0-1.72h7.738a.86.86,0,0,1,0,1.72Zm0-6.019H11.178a.86.86,0,1,1,0-1.72h7.738a.86.86,0,0,1,0,1.72Z" fill="#b8c5d3"/>
  </g>
</svg>
