<svg xmlns="http://www.w3.org/2000/svg" width="20.009" height="20.198" viewBox="0 0 20.009 20.198">
  <g id="_000000ff" data-name="#000000ff" transform="translate(-15.989 -13.513)">
    <path id="Path_16290" data-name="Path 16290" d="M25.572,13.54a3.069,3.069,0,0,1,1.913.367q3.284,1.778,6.566,3.559a5.63,5.63,0,0,1,.728.435,3.057,3.057,0,0,1,1.19,2.041,7.5,7.5,0,0,1,.028.882q0,4.914,0,9.828a3.06,3.06,0,0,1-2.469,3,5.413,5.413,0,0,1-1.086.057H19.068a3.061,3.061,0,0,1-3.079-3.1q0-5.125,0-10.249a3.059,3.059,0,0,1,.844-2.109,3.127,3.127,0,0,1,.809-.607q3.437-1.876,6.87-3.755a3.049,3.049,0,0,1,1.06-.351M22.5,26.842a.665.665,0,0,0-.442.724,4,4,0,0,0,7.84.045.68.68,0,0,0-.122-.542.647.647,0,0,0-.761-.214.7.7,0,0,0-.419.551,2.663,2.663,0,0,1-5.179.057.939.939,0,0,0-.167-.41A.689.689,0,0,0,22.5,26.842Z" transform="translate(0 0)" fill="#b8c5d3"/>
  </g>
</svg>
