<svg xmlns="http://www.w3.org/2000/svg" width="25.422" height="21.565" viewBox="0 0 25.422 21.565">
  <g id="group" transform="translate(0 -38.84)">
    <g id="Group_9946" data-name="Group 9946" transform="translate(19.786 50.482)">
      <g id="Group_9945" data-name="Group 9945">
        <path id="Path_16313" data-name="Path 16313" d="M400.46,273.32h-1.966a5.115,5.115,0,0,1,.31,1.758v7.43a2.191,2.191,0,0,1-.126.734h3.25a2.2,2.2,0,0,0,2.2-2.2V276.99A3.674,3.674,0,0,0,400.46,273.32Z" transform="translate(-398.494 -273.32)" fill="#b8c5d3"/>
      </g>
    </g>
    <g id="Group_9948" data-name="Group 9948" transform="translate(0 50.483)">
      <g id="Group_9947" data-name="Group 9947">
        <path id="Path_16314" data-name="Path 16314" d="M5.326,275.079a5.114,5.114,0,0,1,.31-1.758H3.67A3.674,3.674,0,0,0,0,276.991v4.051a2.2,2.2,0,0,0,2.2,2.2h3.25a2.192,2.192,0,0,1-.126-.734Z" transform="translate(0 -273.321)" fill="#b8c5d3"/>
      </g>
    </g>
    <g id="Group_9950" data-name="Group 9950" transform="translate(6.794 48.571)">
      <g id="Group_9949" data-name="Group 9949" transform="translate(0 0)">
        <path id="Path_16315" data-name="Path 16315" d="M144.993,234.815H140.5a3.674,3.674,0,0,0-3.67,3.67v7.43a.734.734,0,0,0,.734.734h10.366a.734.734,0,0,0,.734-.734v-7.43A3.674,3.674,0,0,0,144.993,234.815Z" transform="translate(-136.829 -234.815)" fill="#b8c5d3"/>
      </g>
    </g>
    <g id="Group_9952" data-name="Group 9952" transform="translate(8.298 38.84)">
      <g id="Group_9951" data-name="Group 9951" transform="translate(0 0)">
        <path id="Path_16316" data-name="Path 16316" d="M171.527,38.84a4.413,4.413,0,1,0,4.413,4.413A4.418,4.418,0,0,0,171.527,38.84Z" transform="translate(-167.114 -38.84)" fill="#b8c5d3"/>
      </g>
    </g>
    <g id="Group_9954" data-name="Group 9954" transform="translate(1.661 42.954)">
      <g id="Group_9953" data-name="Group 9953" transform="translate(0 0)">
        <path id="Path_16317" data-name="Path 16317" d="M36.744,121.689a3.3,3.3,0,1,0,3.3,3.3A3.3,3.3,0,0,0,36.744,121.689Z" transform="translate(-33.443 -121.689)" fill="#b8c5d3"/>
      </g>
    </g>
    <g id="Group_9956" data-name="Group 9956" transform="translate(17.16 42.954)">
      <g id="Group_9955" data-name="Group 9955" transform="translate(0 0)">
        <path id="Path_16318" data-name="Path 16318" d="M348.908,121.689a3.3,3.3,0,1,0,3.3,3.3A3.3,3.3,0,0,0,348.908,121.689Z" transform="translate(-345.607 -121.689)" fill="#b8c5d3"/>
      </g>
    </g>
  </g>
</svg>
