<svg xmlns="http://www.w3.org/2000/svg" width="21.187" height="21.187" viewBox="0 0 21.187 21.187">
  <path id="tips" d="M18.759,0H2.428A2.43,2.43,0,0,0,0,2.428V14.345a2.43,2.43,0,0,0,2.428,2.428h1.1v3.752a.662.662,0,0,0,1.13.468l4.22-4.22h9.878a2.43,2.43,0,0,0,2.428-2.428V2.428A2.43,2.43,0,0,0,18.759,0ZM12.394,12.263a.985.985,0,0,1-.989.98H9.781A1.019,1.019,0,0,1,8.793,12.1v-.477h3.6Zm.715-2.613a1.894,1.894,0,0,0-.689,1.095H8.775a1.66,1.66,0,0,0-.644-1.051,3.9,3.9,0,0,1-1.51-3.178,3.993,3.993,0,0,1,3.911-3.867,3.942,3.942,0,0,1,2.578,7Z" fill="#b8c5d3"/>
</svg>
