<svg xmlns="http://www.w3.org/2000/svg" width="20.761" height="17.734" viewBox="0 0 20.761 17.734">
  <g id="megaphone" transform="translate(0 -1.75)">
    <path id="Path_16304" data-name="Path 16304" d="M7.643,20.368A3.9,3.9,0,0,1,3.75,16.475,3.684,3.684,0,0,1,3.933,15.3a.865.865,0,1,1,1.64.548,2,2,0,0,0-.093.625,2.16,2.16,0,0,0,4.261.5.865.865,0,0,1,1.684.394,3.866,3.866,0,0,1-3.783,2.995Z" transform="translate(-0.506 -1.749)" fill="#b8c5d3"/>
    <path id="Path_16305" data-name="Path 16305" d="M20.112,18.936a.669.669,0,0,1-.18-.025L.469,13.288A.65.65,0,0,1,0,12.664V8.772a.65.65,0,0,1,.469-.624L19.933,2.525a.648.648,0,0,1,.829.624V18.287a.647.647,0,0,1-.649.649Z" transform="translate(0 -0.101)" fill="#b8c5d3"/>
    <path id="Path_16306" data-name="Path 16306" d="M22.865,19.484A.865.865,0,0,1,22,18.619v-16a.865.865,0,1,1,1.73,0v16A.865.865,0,0,1,22.865,19.484Z" transform="translate(-2.969 0)" fill="#b8c5d3"/>
    <path id="Path_16307" data-name="Path 16307" d="M.865,15.1A.865.865,0,0,1,0,14.238V8.615a.865.865,0,0,1,1.73,0v5.623A.865.865,0,0,1,.865,15.1Z" transform="translate(0 -0.81)" fill="#b8c5d3"/>
  </g>
</svg>
