<svg xmlns="http://www.w3.org/2000/svg" width="456.352" height="456.351" viewBox="0 0 456.352 456.351">
  <g id="delete___" transform="translate(12405 -2374)">
    <path id="Path_503" data-name="Path 503" d="M248.016,19.84C122.109,19.84,19.84,122.109,19.84,248.016S122.109,476.191,248.016,476.191,476.191,373.922,476.191,248.016,373.922,19.84,248.016,19.84Zm0,19.844c115.059,0,208.332,93.273,208.332,208.332S363.075,456.348,248.016,456.348,39.684,363.075,39.684,248.016A208.187,208.187,0,0,1,248.016,39.684Z" transform="translate(-12424.84 2354.16)" fill="none"/>
    <path id="Path_583" data-name="Path 583" d="M1956.61,348.176a27.237,27.237,0,0,0,27.138,27.154h108.581a27.245,27.245,0,0,0,27.14-27.154l0-162.87H1956.6Zm33.384-96.643,19.2-19.2,28.918,28.777,28.778-28.777,19.195,19.2L2057.3,280.309l28.777,28.777-19.195,19.2-28.778-28.777-28.794,28.707-19.2-19.2,28.777-28.777Zm95.559-106.957L2071.978,131h-67.9L1990.5,144.576H1943V171.73h190.022V144.576Z" transform="translate(-14216.518 2349.065)" fill="#fa5d50"/>
  </g>
</svg>
