<svg xmlns="http://www.w3.org/2000/svg" width="456.352" height="456.351" viewBox="0 0 456.352 456.351">
  <g id="edit" transform="translate(11800 -2374)">
    <path id="Path_502" data-name="Path 502" d="M248.016,19.84C122.109,19.84,19.84,122.109,19.84,248.016S122.109,476.191,248.016,476.191,476.191,373.922,476.191,248.016,373.922,19.84,248.016,19.84Zm0,19.844A208.332,208.332,0,1,1,39.684,248.016,208.187,208.187,0,0,1,248.016,39.684Z" transform="translate(-11819.84 2354.16)" fill="none"/>
    <g id="surface1" transform="translate(-11694 2480)">
      <path id="Path_493" data-name="Path 493" d="M205.181,8l-31.09,31.09,51.515,51.515,31.09-31.09ZM154.672,58.509,12,201.181V252.7H63.515L206.187,110.024Z" transform="translate(-12 -8)" fill="#367bf5"/>
    </g>
  </g>
</svg>
