<svg xmlns="http://www.w3.org/2000/svg" width="22.111" height="22.128" viewBox="0 0 22.111 22.128">
  <path id="icons8-sign_out" d="M13.1,1.969a11.064,11.064,0,1,0,8.236,18.441A.962.962,0,1,0,19.9,19.126a9.14,9.14,0,1,1,0-12.186.962.962,0,1,0,1.433-1.283A11.037,11.037,0,0,0,13.1,1.969ZM19.79,8.694a.962.962,0,0,0-.67,1.652l1.725,1.725H12.1A.962.962,0,1,0,12.1,14h8.742L19.12,15.72a.962.962,0,1,0,1.361,1.361L23.762,13.8a.962.962,0,0,0,0-1.535L20.48,8.985a.962.962,0,0,0-.691-.291Z" transform="translate(-2.031 -1.969)" fill="#fff"/>
</svg>
