<svg xmlns="http://www.w3.org/2000/svg" width="684.527" height="456.351" viewBox="0 0 684.527 456.351">
  <g id="view" transform="translate(0 -78.949)">
    <path id="Path_514" data-name="Path 514" d="M342.267,78.949c-203.49,0-334.956,210.168-337.276,214A22.726,22.726,0,0,0,0,307.125,22.285,22.285,0,0,0,3.743,319.6v.09c.446.8,110.788,215.61,338.524,215.61,226.747,0,336.914-212.669,338.337-215.344.09-.091.181-.266.27-.355a23.033,23.033,0,0,0-1.247-26.651h-.091C677.216,289.118,545.75,78.949,342.267,78.949Zm0,68.45A159.722,159.722,0,1,1,182.541,307.125,159.687,159.687,0,0,1,342.267,147.4Zm0,91.269a68.454,68.454,0,1,0,68.451,68.456A68.474,68.474,0,0,0,342.267,238.669Z" fill="#f3aa18"/>
  </g>
</svg>
